<svg width="24" height="24" viewBox="0 0 24 24" fill="none" xmlns="http://www.w3.org/2000/svg">
<rect width="24" height="24" fill="white"/>
<path fill-rule="evenodd" clip-rule="evenodd" d="M17.25 15.2957V18.25C17.25 19.9069 15.9069 21.25 14.25 21.25H3.75C2.09315 21.25 0.75 19.9069 0.75 18.25V7.75C0.75 6.09315 2.09315 4.75 3.75 4.75H14.25C15.9069 4.75 17.25 6.09315 17.25 7.75V15.2043C17.2518 15.2347 17.2518 15.2653 17.25 15.2957V15.2957ZM15.7501 15.5594L12.7502 12.5606L9.91514 15.3956L13.8341 19.75H14.2501C15.0785 19.75 15.7501 19.0784 15.7501 18.25V15.5594ZM15.75 13.4384V7.75C15.75 6.92157 15.0784 6.25 14.25 6.25H3.75C2.92157 6.25 2.25 6.92157 2.25 7.75V16.4393L6.21967 12.4697C6.52351 12.1658 7.02001 12.1789 7.30747 12.4983L8.91022 14.2791L12.2197 10.9697C12.5125 10.6768 12.9873 10.6768 13.2802 10.9696L15.75 13.4384ZM11.8161 19.75L6.72143 14.0893L2.27689 18.5339C2.40956 19.2266 3.01869 19.75 3.75007 19.75H11.8161ZM6.375 10.75C5.33946 10.75 4.5 9.91053 4.5 8.875C4.5 7.83947 5.33946 7 6.375 7C7.41053 7 8.25 7.83947 8.25 8.875C8.25 9.91053 7.41053 10.75 6.375 10.75ZM6.375 9.25C6.58211 9.25 6.75 9.08211 6.75 8.875C6.75 8.66789 6.58211 8.5 6.375 8.5C6.1679 8.5 6 8.66789 6 8.875C6 9.08211 6.1679 9.25 6.375 9.25Z" fill="#92929D"/>
<rect width="18" height="18" transform="translate(5 1)" fill="white"/>
<path fill-rule="evenodd" clip-rule="evenodd" d="M22.25 12.2957V15.25C22.25 16.9069 20.9069 18.25 19.25 18.25H8.75C7.09315 18.25 5.75 16.9069 5.75 15.25V4.75C5.75 3.09315 7.09315 1.75 8.75 1.75H19.25C20.9069 1.75 22.25 3.09315 22.25 4.75V12.2043C22.2518 12.2347 22.2518 12.2653 22.25 12.2957V12.2957ZM20.7501 12.5594L17.7502 9.56058L14.9151 12.3956L18.8341 16.75H19.2501C20.0785 16.75 20.7501 16.0784 20.7501 15.25V12.5594ZM20.75 10.4384V4.75C20.75 3.92157 20.0784 3.25 19.25 3.25H8.75C7.92157 3.25 7.25 3.92157 7.25 4.75V13.4393L11.2197 9.46967C11.5235 9.16583 12.02 9.17888 12.3075 9.49828L13.9102 11.2791L17.2197 7.96967C17.5125 7.67682 17.9873 7.67677 18.2802 7.96957L20.75 10.4384ZM16.8161 16.75L11.7214 11.0893L7.27689 15.5339C7.40956 16.2266 8.01869 16.75 8.75007 16.75H16.8161ZM11.375 7.75C10.3395 7.75 9.5 6.91053 9.5 5.875C9.5 4.83947 10.3395 4 11.375 4C12.4105 4 13.25 4.83947 13.25 5.875C13.25 6.91053 12.4105 7.75 11.375 7.75ZM11.375 6.25C11.5821 6.25 11.75 6.08211 11.75 5.875C11.75 5.66789 11.5821 5.5 11.375 5.5C11.1679 5.5 11 5.66789 11 5.875C11 6.08211 11.1679 6.25 11.375 6.25Z" fill="#92929D"/>
</svg>
