<?xml version="1.0" encoding="UTF-8" standalone="no"?>
<svg
   xmlns:dc="http://purl.org/dc/elements/1.1/"
   xmlns:cc="http://creativecommons.org/ns#"
   xmlns:rdf="http://www.w3.org/1999/02/22-rdf-syntax-ns#"
   xmlns:svg="http://www.w3.org/2000/svg"
   xmlns="http://www.w3.org/2000/svg"
   version="1.1"
   id="svg2"
   xml:space="preserve"

   viewBox="0 0 3660 2440"><metadata
     id="metadata8"><rdf:RDF><cc:Work
         rdf:about=""><dc:format>image/svg+xml</dc:format><dc:type
           rdf:resource="http://purl.org/dc/dcmitype/StillImage" /><dc:title></dc:title></cc:Work></rdf:RDF></metadata><defs
     id="defs6" /><g
     id="g10"
     transform="matrix(1.3333333,0,0,-1.3333333,0,2440)"><g
       id="g380"><g
         id="g18"
         transform="scale(0.140688)"><path
           d="m 11965.4,11247.3 c -561,96.9 -1081.4,-115.5 -1517.6,-443.7 C 9731.73,10264.8 9237.01,9491.22 8417.83,9091.98 7673.49,8729.24 6905.14,8580.62 6130.27,8333.14 5369.8,8090.27 4602.9,7797.53 4061.76,7162.97 3839.26,6902.06 3381.59,5849.45 3846.71,4438.61 4308.46,3037.78 5894.01,2906.99 6963.82,2191.15 7468,1853.82 8033.72,1039.53 10450.4,1075.21 c 2085.8,30.78 2973.6,769.29 3686.7,1531.62 669.7,715.76 1439.3,638.86 1893.4,1662.47 269.5,607.58 100.3,1495.29 -310.7,1885.53 -350.7,333.1 -829.7,456.32 -1162.8,813.53 -257.9,276.47 -438.6,622.43 -571.5,982.57 -256.6,694.9 -177.5,1486.95 -490,2175.57 -273.7,603.2 -789.6,992.8 -1530.1,1120.8"
           style="fill:#caedff;fill-opacity:1;fill-rule:evenodd;stroke:none"
           id="path20" /></g><path
         d="m 1389.66,905.761 c -1.6,0.188 -0.88,-6.124 -1.39,-4.604 -7.08,21.247 -15.67,42.923 -23.01,64.452 -11.84,34.711 -39.2,101.401 -39.2,101.401 v 50.46 c 0,0 -22.14,8.78 -26.69,15.62 -4.56,6.83 -20.32,28.62 -25.72,47.52 -20.35,71.22 -23.25,133.86 -12.04,206.69 4.24,27.55 9.63,81.18 28.15,104.06 28.99,35.81 79.37,46.78 123.38,44.2 11.74,-0.69 15.58,-1.6 28.54,-5.53 58.77,-17.81 63.72,-71.34 88.39,-118.78 8.12,-15.61 18.79,-29.33 33.15,-39.59 4.05,-2.89 17.54,1.68 25.17,-4.26 8.07,-6.28 10.2,-23.15 11.08,-29.25 3.35,-23.46 -15.39,-42.27 -28.97,-59.24 -3.61,-4.51 -22.79,-12.37 -22.79,-12.37 0,0 -0.88,-2.91 -3.58,-13.67 -8.48,-33.94 -17.24,-138.01 -17.24,-138.01 0,0 -25.23,-45.2 -40.69,-72.26 -22.81,-39.9 -44.82,-65.973 -66.61,-106.454 -4.5,-8.347 -18.66,-31.721 -29.93,-30.385"
         style="fill:#ffefe9;fill-opacity:1;fill-rule:evenodd;stroke:none;stroke-width:0.1"
         id="path22" /><path
         d="m 765.1,835.534 c 0,0 12.623,-6.634 -16.265,20.883 -11.735,11.173 -23.099,13.163 -42.599,20.857 -7.696,3.038 -26.386,12.714 -32.139,15.485 -17.447,8.4 -58.822,34.819 -58.822,34.819 0,0 -11.642,-1.199 -18.849,1.202 -4.926,1.641 -28.482,3.113 -29.259,15.303 -0.769,12.188 23.978,24.075 23.978,24.075 0,0 -0.093,11.048 -0.532,17.8 -0.592,8.929 18.275,14.692 18.275,14.692 0,0 -24.51,7.98 -27.29,18.98 -2.771,11 16.044,26.26 16.044,26.26 0,0 -19.246,4.68 -30.542,6.34 -11.297,1.67 -46.165,3.48 -72.357,12.21 -26.563,8.85 -9.505,20.68 3.54,21.86 13.831,1.26 27.341,0.59 41.071,-0.56 18.266,-1.52 34.437,-0.65 52.754,-1.52 15.335,-0.73 30.467,-5.04 45.608,-8.35 18.503,-4.05 36.879,-3.96 53.574,-11.66 32.545,-15.02 62.015,-38.84 87.86,-64.686 13.713,-13.706 36.719,-33.566 53.448,-58.666 11.524,-17.291 22.576,-37.669 22.576,-37.669 0,0 -2.18,-7.53 -8.424,-17.883 -7.908,-13.098 -27.771,-33.685 -41.307,-40.317 -20.759,-10.164 -40.343,-9.455 -40.343,-9.455"
         style="fill:#ffefe9;fill-opacity:1;fill-rule:evenodd;stroke:none;stroke-width:0.1"
         id="path24" /><g
         id="g26"
         transform="scale(0.129956)"><path
           d="m 13565.9,6455.61 c 0,0 37.3,36.79 144.5,224.34 45.1,79.05 27.8,125.1 103.6,269.88 27.9,53.1 211.2,283.97 253.9,345.65 51.7,74.48 67.7,172.9 197.5,272.46 123.3,94.53 398.3,145.91 398.3,145.91 0,0 146.6,72.19 358.3,142.31 165.9,54.93 375.4,80.87 486.2,99.32 149.1,24.86 335.7,38.86 512.9,42.79 88.1,1.96 249.1,-39.85 259.3,-90.27 19.6,-97.98 -70.4,-126.3 -70.4,-126.3 0,0 -166.4,-41.96 -288.7,-57.13 -101.8,-12.62 -226.9,-39.05 -321.6,-46.34 -63,-4.84 -272,-68.54 -272,-68.54 0,0 31.2,-66.03 18.5,-136.25 -12.8,-70.45 -88.4,-190.81 -88.4,-190.81 0,0 47.9,-50.54 56.9,-86.15 26,-104.07 -32,-260.06 -32,-260.06 0,0 90,-103.95 65.3,-175.38 -22.3,-64.24 -117.3,-157.2 -162.5,-194.2 -72.6,-59.41 -218.6,-76.45 -297.4,-128.92 -133.5,-89.02 -364.2,-112.19 -364.2,-112.19 0,0 -90.7,-114.49 -180.1,-153.82 -117,-51.47 -226.7,-67.33 -336.1,-67.33 -97.7,0 -279.1,86.26 -338.7,175.53 -32.1,48.24 -103.1,175.5 -103.1,175.5"
           style="fill:#ffefe9;fill-opacity:1;fill-rule:evenodd;stroke:none"
           id="path28" /></g><g
         id="g30"
         transform="scale(0.116226)"><path
           d="m 11145,9772.57 -189.1,-334.53 c 0,0 -79.1,53.48 -169.7,43.7 -140.9,-15.23 -266.3,-132.64 -365.5,-161.38 -101.9,-29.48 -257.7,-53.6 -362.7,-79.86 -201.98,-50.49 -535.72,-84.92 -717.87,-183.82 -188.51,-102.35 -347.34,-164.72 -482.59,-336.79 -143.08,-182.17 -220.35,-439.76 -298.31,-654.25 -100.82,-277.34 -156.65,-603.75 -239.97,-886.96 -43.68,-148.69 -98.42,-318.53 -150.32,-406.29 -51.9,-87.68 -112.75,-186.11 -112.75,-186.11 l 1.82,-325.74 c 0,0 -188.28,310.08 -278.56,537.92 -124.38,313.95 -234.3,687.7 -288.81,811.58 -35.34,80.31 -107.44,211.21 -107.44,211.21 0,0 -124.31,-238.71 -149.46,-267.73 -112.31,-129.63 -289.1,-272.2 -441.18,-348.24 -88.18,-44.05 -340.86,26.97 -340.86,26.97 0,0 10.54,-105.9 27.55,-166.73 16.94,-60.92 50.67,-181.2 54.09,-189.8 91.66,-229.12 126.99,-490.17 173.22,-730.56 35.7,-185.41 4.08,-410.32 42.83,-599.18 40.41,-197.02 255.44,-464.35 316.93,-652.08 29.74,-90.69 104.11,-243.75 135.58,-324.46 132.88,-340.19 233.05,-461.77 499.85,-759.98 168.56,-188.42 360.11,-403.61 602.18,-494.38 127.94,-47.92 262.35,1.64 350.04,74.68 149.28,124.41 251.32,204.09 358.35,366.61 45.86,69.78 137.84,217.6 172.51,292.02 68.83,147.47 217.17,538.09 217.17,538.09 0,0 45.34,-463.58 36.56,-613.46 -24.43,-414.45 -17.55,-781.4 -65.99,-1118.94 -34.76,-243.31 -59.97,-584.11 19.96,-823.64 23.58,-70.9 45.77,-106.44 45.77,-106.44 0,0 389.67,-226.36 963,-391.04 394,-113.32 877.7,-169.41 1369.8,-215.53 1207.8,-113.4 2498.9,153.32 2498.9,153.32 0,0 95.8,38.11 108.1,556.76 4.7,200.13 -40.1,401.89 -51.4,660 -18,410.84 -7.8,857.38 -7.8,857.38 l 67,348.37 c 0,0 87.1,-31.74 123,-67.62 150.4,-150.49 351.1,-435.27 587.4,-459.45 167.4,-17.12 416.8,74.85 504.7,192.04 99.6,132.67 256.8,237.72 315.9,397.33 78.8,212.69 77.7,562.86 142,775.38 86.3,285.65 128.7,478.03 152.7,770.73 20.8,253.39 0,529.32 0,787.01 0,165.27 63.1,429.67 75.7,588.93 12.7,159.17 -63.1,169.32 -63.1,169.32 0,0 -195.8,-156.5 -207.3,-159.25 -86,-20.48 -186.1,-63.5 -272.9,-49.65 -91,14.63 -228.9,-19.01 -346.6,70.04 -94.2,71.24 -176.3,257.95 -205.9,336.32 -33.9,90 143.7,218.69 143.7,218.69 l 96.5,287.31 201.5,268.03 c 0,0 -161.6,534.83 -293.7,711.85 -107.2,143.66 -219.9,197.27 -326,261.7 -191.6,116.31 -429.1,227.85 -645.8,291.49 -145.5,42.75 -470.7,158.22 -597.4,246.6 -92.9,64.71 -201,105.97 -201,105.97 0,0 -41.7,123.23 -68.6,246.02 -25,114.19 -32.9,226.65 -89.9,274.45 -50.4,42.4 -228.6,165.9 -228.6,165.9 -72.1,-120.1 -47.2,-712.64 -47.2,-712.64 0,0 -249,-413.64 -378.2,-557.13 -182.3,-202.51 -472,-181.2 -589.1,-429.97 -33.3,-70.73 -29.8,-240.99 -67.6,-436.27 -37.9,-195.31 -121.3,-497.72 -121.3,-497.72 0,0 -82.1,184.28 -94.6,214.21 -58.2,139.87 -43.7,645.69 -80.3,792.23 -37.2,148.85 -135.4,204.56 -233.1,290.75 -77.6,68.48 -162.5,183.7 -162.5,183.7 l 9.8,441.75 -273.1,161.26"
           style="fill:#ffffff;fill-opacity:1;fill-rule:evenodd;stroke:none"
           id="path32" /></g><path
         d="m 1593.76,1359.28 c 0,0 23.43,85.09 20.65,111.49 -3.46,32.79 -14.44,53.25 -36.47,74.32 -11.44,10.94 -31.04,15.28 -40.61,27.87 -5.3,6.97 -14.8,18.59 -20.99,24.78 -10.89,10.89 -35.26,15.54 -49.2,18.78 -26.71,6.22 -58.03,-0.61 -85.35,-5.02 -14.69,-2.37 -49.54,-21.33 -68.13,-30.97 -31.18,-16.17 -54.58,-11.04 -62.97,-52.99 -0.93,-4.68 -4.28,-22.09 -1.38,-35.02 4.74,-21.03 23.06,-33.45 23.06,-33.45 l 14.46,32.69 c 0,0 21.26,-0.21 28.21,0.68 36.89,4.73 64.79,22.85 101.86,25.81 14.13,1.13 31.76,-15.01 43.7,-24.77 14.77,-12.09 36.09,-12.95 40.68,-31.72 5.61,-22.93 2.51,-58.1 10.93,-77.36 5.31,-12.13 11.7,-27.99 26.84,-29.25 8.34,-0.7 21.68,14.11 34.75,13.07 13.08,-1.03 19.96,-8.94 19.96,-8.94"
         style="fill:#ffd8a4;fill-opacity:1;fill-rule:evenodd;stroke:none;stroke-width:0.1"
         id="path34" /><path
         d="m 1378.94,1255.55 c -12.7,0 -24.5,4.55 -33.54,13 -10.24,9.56 -16.11,23.18 -16.11,37.38 0,6.04 1.06,11.93 3.15,17.52 0.81,2.19 3.26,3.29 5.44,2.48 2.18,-0.81 3.29,-3.24 2.47,-5.43 -1.73,-4.65 -2.61,-9.55 -2.61,-14.57 0,-11.87 4.9,-23.24 13.42,-31.21 5.79,-5.41 15.75,-11.69 30.86,-10.61 9.83,0.66 18.73,5.2 25.06,12.76 7.25,8.67 10.49,20.23 9.14,32.55 -0.25,2.32 1.42,4.41 3.74,4.66 2.27,0.23 4.41,-1.41 4.66,-3.73 1.61,-14.64 -2.32,-28.45 -11.06,-38.9 -7.82,-9.35 -18.82,-14.95 -30.96,-15.77 -1.23,-0.09 -2.45,-0.13 -3.66,-0.13"
         style="fill:#6c86ad;fill-opacity:1;fill-rule:nonzero;stroke:none;stroke-width:0.1"
         id="path36" /><path
         d="m 1262.64,1276.96 c -22.24,0 -40.34,20.84 -40.34,46.46 0,2.33 1.89,4.22 4.22,4.22 2.34,0 4.23,-1.89 4.23,-4.22 0,-20.96 14.3,-38.01 31.89,-38.01 17.59,0 31.89,17.05 31.89,38.01 0,2.33 1.89,4.22 4.23,4.22 2.33,0 4.22,-1.89 4.22,-4.22 0,-25.62 -18.1,-46.46 -40.34,-46.46"
         style="fill:#6c86ad;fill-opacity:1;fill-rule:nonzero;stroke:none;stroke-width:0.1"
         id="path38" /><path
         d="m 1226.52,1319.19 c -2.33,0 -4.22,1.89 -4.22,4.23 0,4.27 0.25,10.83 2.46,18.57 0.65,2.25 3.02,3.53 5.23,2.91 2.24,-0.65 3.54,-2.99 2.9,-5.23 -1.92,-6.72 -2.14,-12.49 -2.14,-16.25 0,-2.34 -1.89,-4.23 -4.23,-4.23"
         style="fill:#6c86ad;fill-opacity:1;fill-rule:nonzero;stroke:none;stroke-width:0.1"
         id="path40" /><path
         d="m 1422.79,1293.51 c -1.69,0 -3.29,1.02 -3.94,2.69 -0.85,2.18 0.23,4.62 2.41,5.47 l 96.98,37.58 c 2.17,0.84 4.63,-0.23 5.47,-2.41 0.85,-2.17 -0.24,-4.62 -2.41,-5.47 l -96.98,-37.58 c -0.51,-0.19 -1.02,-0.28 -1.53,-0.28"
         style="fill:#6c86ad;fill-opacity:1;fill-rule:nonzero;stroke:none;stroke-width:0.1"
         id="path42" /><path
         d="m 1228.83,1316.97 c -1.74,0 -3.36,1.07 -3.98,2.8 -0.79,2.2 0.36,4.62 2.55,5.4 l 27.09,9.71 c 2.18,0.79 4.61,-0.35 5.4,-2.56 0.79,-2.19 -0.35,-4.61 -2.55,-5.4 l -27.09,-9.7 c -0.47,-0.17 -0.95,-0.25 -1.42,-0.25"
         style="fill:#6c86ad;fill-opacity:1;fill-rule:nonzero;stroke:none;stroke-width:0.1"
         id="path44" /><path
         d="m 1330.79,1302.44 c -0.9,0 -1.8,0.29 -2.57,0.88 l -0.98,0.76 c -10.57,8.15 -16.51,12.08 -25.79,5.46 -1.9,-1.36 -4.54,-0.92 -5.89,0.98 -1.36,1.9 -0.92,4.54 0.98,5.89 14.81,10.59 26,1.97 35.86,-5.65 l 0.97,-0.75 c 1.85,-1.42 2.19,-4.07 0.77,-5.92 -0.83,-1.08 -2.08,-1.65 -3.35,-1.65"
         style="fill:#6c86ad;fill-opacity:1;fill-rule:nonzero;stroke:none;stroke-width:0.1"
         id="path46" /><path
         d="m 1136.16,1370.15 c -1.84,0 -3.54,1.22 -4.06,3.09 -0.29,1.02 -6.99,25.28 -3.22,39.72 1.51,5.75 4,10.79 6.41,15.66 5.05,10.25 9.42,19.09 5.02,33.19 -2.2,7.08 -7.77,11.66 -14.89,12.26 -6.8,0.61 -15.9,-2.64 -21.32,-13.32 -1.04,-2.09 -3.56,-2.94 -5.67,-1.86 -2.08,1.05 -2.92,3.59 -1.86,5.68 6.02,11.89 17.72,18.96 29.56,17.92 10.51,-0.88 19.04,-7.84 22.25,-18.17 5.39,-17.32 -0.4,-29.07 -5.52,-39.43 -2.32,-4.71 -4.51,-9.16 -5.8,-14.07 -2.66,-10.17 1.39,-28.93 3.17,-35.3 0.63,-2.25 -0.68,-4.58 -2.93,-5.21 -0.38,-0.11 -0.76,-0.16 -1.14,-0.16"
         style="fill:#6c86ad;fill-opacity:1;fill-rule:nonzero;stroke:none;stroke-width:0.1"
         id="path48" /><path
         d="m 1144.87,1336.26 c -1.85,0 -3.55,1.22 -4.07,3.09 l -1.09,3.9 c -0.62,2.24 0.69,4.58 2.93,5.2 2.27,0.62 4.59,-0.68 5.21,-2.93 l 1.09,-3.89 c 0.62,-2.25 -0.69,-4.59 -2.93,-5.21 -0.38,-0.11 -0.76,-0.16 -1.14,-0.16"
         style="fill:#6c86ad;fill-opacity:1;fill-rule:nonzero;stroke:none;stroke-width:0.1"
         id="path50" /><path
         d="m 1263.81,1400.22 c -0.06,0 -0.12,0 -0.18,0.01 -2.33,0.09 -4.15,2.06 -4.05,4.39 1.46,35.22 12.53,69.83 22.86,88.5 1.12,2.03 3.71,2.77 5.74,1.65 2.04,-1.13 2.78,-3.7 1.65,-5.75 -9.84,-17.79 -20.4,-50.9 -21.81,-84.75 -0.09,-2.27 -1.96,-4.05 -4.21,-4.05"
         style="fill:#6c86ad;fill-opacity:1;fill-rule:nonzero;stroke:none;stroke-width:0.1"
         id="path52" /><path
         d="m 1354.28,1108.98 c -3.97,0 -7.89,0.22 -11.76,0.66 -26.1,3 -46.91,16.21 -58.59,37.19 -27.1,48.71 -38.58,122.27 -30.7,196.8 0.24,2.32 2.25,4.06 4.65,3.75 2.32,-0.24 4,-2.32 3.75,-4.64 -7.7,-72.86 3.39,-144.56 29.69,-191.8 10.31,-18.54 28.84,-30.22 52.17,-32.91 42.54,-4.87 92.83,19.66 134.54,65.65 1.57,1.74 4.25,1.85 5.96,0.3 1.73,-1.57 1.86,-4.25 0.29,-5.97 -39.8,-43.9 -87.53,-69.03 -130,-69.03"
         style="fill:#6c86ad;fill-opacity:1;fill-rule:nonzero;stroke:none;stroke-width:0.1"
         id="path54" /><path
         d="m 1545.28,1262.28 c -1.16,0 -2.22,0.15 -3.16,0.47 -2.2,0.76 -3.38,3.17 -2.62,5.37 0.75,2.21 3.15,3.37 5.36,2.63 5.24,-1.44 35.58,16.42 46.27,45.96 8.38,23.15 2.68,39.59 -6.7,45.6 -6.79,4.36 -14.87,2.97 -21.62,-3.66 -1.66,-1.63 -4.33,-1.62 -5.97,0.05 -1.63,1.66 -1.62,4.34 0.05,5.97 9.62,9.47 21.94,11.3 32.11,4.75 12.19,-7.82 20.04,-28.05 10.07,-55.58 -10.4,-28.77 -39.7,-51.56 -53.79,-51.56"
         style="fill:#6c86ad;fill-opacity:1;fill-rule:nonzero;stroke:none;stroke-width:0.1"
         id="path56" /><path
         d="m 1561.51,1310.66 c -0.84,0 -1.69,0.26 -2.43,0.78 -1.91,1.34 -2.36,3.97 -1.03,5.88 0.24,0.33 5.81,8.22 11.67,14.32 1.62,1.69 4.29,1.72 5.97,0.12 1.69,-1.62 1.74,-4.29 0.12,-5.97 -5.4,-5.63 -10.79,-13.26 -10.84,-13.34 -0.83,-1.16 -2.14,-1.79 -3.46,-1.79"
         style="fill:#6c86ad;fill-opacity:1;fill-rule:nonzero;stroke:none;stroke-width:0.1"
         id="path58" /><path
         d="m 1305.11,1257 c -0.5,0 -1.01,0.09 -1.5,0.28 -2.09,0.79 -3.3,1.72 -4.7,2.79 -17.01,12.69 -7.72,28.75 -0.94,40.49 1.91,3.29 3.7,6.4 4.85,9.15 5.5,13.21 5.24,26.95 -0.68,35.84 -1.3,1.95 -0.78,4.57 1.17,5.86 1.94,1.3 4.56,0.77 5.86,-1.17 7.47,-11.21 8.02,-27.99 1.44,-43.78 -1.35,-3.26 -3.28,-6.6 -5.33,-10.13 -7.65,-13.25 -11.61,-21.81 -1.98,-28.99 l 0.74,-0.56 c 1.15,-0.88 1.63,-1.24 2.57,-1.6 2.18,-0.83 3.28,-3.27 2.45,-5.45 -0.64,-1.69 -2.25,-2.73 -3.95,-2.73"
         style="fill:#6c86ad;fill-opacity:1;fill-rule:nonzero;stroke:none;stroke-width:0.1"
         id="path60" /><path
         d="m 1271.65,1457.43 c -0.67,0 -1.35,0.16 -1.98,0.5 -15.88,8.45 -25.48,24.9 -26.33,45.12 -0.87,20.64 7.47,40.83 20.29,49.09 1.94,1.27 4.57,0.71 5.83,-1.26 1.27,-1.96 0.7,-4.57 -1.26,-5.84 -10.25,-6.61 -17.15,-24.12 -16.42,-41.63 0.43,-10.08 3.83,-28.43 21.86,-38.02 2.06,-1.1 2.84,-3.66 1.74,-5.72 -0.76,-1.42 -2.22,-2.24 -3.73,-2.24"
         style="fill:#6c86ad;fill-opacity:1;fill-rule:nonzero;stroke:none;stroke-width:0.1"
         id="path62" /><g
         id="g64"
         transform="scale(0.100299)"><path
           d="m 12733.5,15602.3 c -79.1,0 -152.5,28.9 -208.5,108.1 -13.5,19 -8.9,45.3 10,58.7 19,13.5 45.3,8.9 58.8,-10.1 101.5,-143.4 302.7,-45.7 500,66.8 28.8,16.4 54.4,31 75.9,41.8 708.1,357.1 1284.5,432.4 1762.4,230.1 144.8,-61.2 324,-205 371.2,-350.8 7.2,-22.2 -4.9,-45.9 -27,-53.1 -22.5,-7.3 -46,5 -53.1,27.2 -34.1,105.2 -176.4,236.7 -324,299.1 -453.5,192 -1006.9,117.5 -1691.6,-227.7 -20.4,-10.3 -44.7,-24.2 -72.1,-39.8 -108.6,-61.8 -263.9,-150.3 -402,-150.3"
           style="fill:#6c86ad;fill-opacity:1;fill-rule:nonzero;stroke:none"
           id="path66" /></g><path
         d="m 1542.59,1569.57 c -0.78,0 -1.57,0.21 -2.28,0.67 -1.97,1.26 -2.54,3.87 -1.27,5.83 3.29,5.12 3.21,13.02 2.64,16.87 -0.34,2.31 1.26,4.45 3.57,4.79 2.27,0.36 4.45,-1.25 4.79,-3.57 0.33,-2.25 1.69,-13.95 -3.89,-22.65 -0.81,-1.26 -2.17,-1.94 -3.56,-1.94"
         style="fill:#6c86ad;fill-opacity:1;fill-rule:nonzero;stroke:none;stroke-width:0.1"
         id="path68" /><path
         d="m 1470.13,1505.45 c -0.77,0 -1.55,0.21 -2.25,0.65 -1.97,1.24 -2.57,3.85 -1.32,5.82 19.56,31.07 46.19,47 63.04,51.2 2.27,0.58 4.56,-0.81 5.13,-3.07 0.56,-2.27 -0.82,-4.56 -3.08,-5.13 -15.34,-3.82 -39.71,-18.56 -57.94,-47.5 -0.8,-1.28 -2.17,-1.97 -3.58,-1.97"
         style="fill:#6c86ad;fill-opacity:1;fill-rule:nonzero;stroke:none;stroke-width:0.1"
         id="path70" /><path
         d="m 1309.52,1490.29 c -0.58,0 -1.17,0.12 -1.73,0.37 -7.86,3.53 -13.48,13.07 -14.33,24.31 -0.86,11.4 3.28,21.2 11.05,26.22 1.96,1.26 4.57,0.7 5.84,-1.26 1.27,-1.96 0.7,-4.58 -1.26,-5.84 -6.04,-3.9 -7.68,-12.11 -7.2,-18.49 0.61,-8.07 4.37,-14.99 9.36,-17.24 2.13,-0.95 3.08,-3.45 2.12,-5.58 -0.7,-1.57 -2.24,-2.49 -3.85,-2.49"
         style="fill:#6c86ad;fill-opacity:1;fill-rule:nonzero;stroke:none;stroke-width:0.1"
         id="path72" /><path
         d="m 1349.32,1495.41 c -7.27,0 -14.7,1.98 -22.35,7.22 -1.92,1.32 -2.41,3.95 -1.1,5.87 1.32,1.92 3.94,2.42 5.88,1.1 15.98,-10.95 30.87,-4.18 48.11,3.67 20.85,9.5 44.47,20.24 70.5,-5.58 1.65,-1.64 1.67,-4.32 0.02,-5.97 -1.63,-1.66 -4.31,-1.67 -5.97,-0.03 -21.92,21.73 -40.93,13.05 -61.05,3.89 -11.05,-5.03 -22.34,-10.17 -34.04,-10.17"
         style="fill:#6c86ad;fill-opacity:1;fill-rule:nonzero;stroke:none;stroke-width:0.1"
         id="path74" /><path
         d="m 1546.35,1368.93 c -37.97,0 -41.56,33.34 -44.74,62.77 -3.25,30.14 -6.76,48.47 -28,48.86 -2.33,0.05 -4.19,1.97 -4.15,4.3 0.05,2.33 2.12,4.05 4.3,4.15 30.23,-0.56 33.43,-30.23 36.25,-56.4 3.09,-28.64 6.27,-55.63 37.19,-55.22 0.03,0 0.05,0 0.07,0 2.3,0 4.19,-1.85 4.23,-4.16 0.03,-2.34 -1.84,-4.25 -4.16,-4.29 -0.34,0 -0.67,-0.01 -0.99,-0.01"
         style="fill:#6c86ad;fill-opacity:1;fill-rule:nonzero;stroke:none;stroke-width:0.1"
         id="path76" /><g
         id="g78"
         transform="scale(0.10008)"><path
           d="m 15975.4,13706.8 c -4,0 -8.2,0.6 -12.2,1.8 -22.4,6.8 -35,30.4 -28.2,52.7 273.6,902.9 129.3,1211.7 -87.6,1521.4 -59.3,84.8 -230,251.4 -374.1,271.4 -23.1,3.2 -39.2,24.5 -36,47.6 3.2,23.2 25,39.2 47.6,36 164.1,-22.7 354.6,-196.4 431.6,-306.5 222.4,-317.6 383.5,-656.7 99.2,-1594.4 -5.5,-18.2 -22.2,-30 -40.3,-30"
           style="fill:#6c86ad;fill-opacity:1;fill-rule:nonzero;stroke:none"
           id="path80" /></g><path
         d="m 1540.17,1350.45 c -7.78,0 -19.7,4.64 -27.53,14.8 -1.42,1.85 -1.07,4.51 0.78,5.93 1.84,1.42 4.49,1.09 5.92,-0.77 6.49,-8.44 16.02,-11.51 20.83,-11.51 2.33,0 4.22,-1.89 4.22,-4.22 0,-2.34 -1.89,-4.23 -4.22,-4.23"
         style="fill:#6c86ad;fill-opacity:1;fill-rule:nonzero;stroke:none;stroke-width:0.1"
         id="path82" /><path
         d="m 1374.82,1382.43 c -1.12,0 -2.23,0.44 -3.06,1.31 -1.61,1.69 -1.54,4.37 0.15,5.98 6.79,6.43 16.36,10.09 24.79,9.66 7.29,-0.41 13.74,-3.71 18.66,-9.55 1.5,-1.79 1.27,-4.45 -0.51,-5.95 -1.77,-1.51 -4.44,-1.28 -5.96,0.51 -3.43,4.07 -7.69,6.28 -12.66,6.55 -6.23,0.43 -13.35,-2.47 -18.5,-7.36 -0.82,-0.77 -1.86,-1.15 -2.91,-1.15"
         style="fill:#6c86ad;fill-opacity:1;fill-rule:nonzero;stroke:none;stroke-width:0.1"
         id="path84" /><path
         d="m 1283.41,1388.73 c -1.38,0 -2.73,0.67 -3.54,1.91 -3.91,5.98 -8.53,9.56 -12.36,9.59 -2.23,0.08 -3.8,-1.06 -5.24,-3.2 -1.31,-1.92 -3.93,-2.44 -5.87,-1.13 -1.93,1.31 -2.44,3.93 -1.13,5.87 3.05,4.49 7.51,6.58 12.31,6.91 6.86,-0.05 13.74,-4.82 19.36,-13.42 1.28,-1.95 0.73,-4.57 -1.22,-5.85 -0.71,-0.46 -1.52,-0.68 -2.31,-0.68"
         style="fill:#6c86ad;fill-opacity:1;fill-rule:nonzero;stroke:none;stroke-width:0.1"
         id="path86" /><path
         d="m 1395.81,1334.15 c 0,4.19 -3.53,7.59 -7.9,7.59 -4.36,0 -7.9,-3.4 -7.9,-7.59 0,-4.2 3.54,-7.6 7.9,-7.6 4.37,0 7.9,3.4 7.9,7.6"
         style="fill:#6c86ad;fill-opacity:1;fill-rule:evenodd;stroke:none;stroke-width:0.1"
         id="path88" /><path
         d="m 1292.22,1343.99 c 0,4.2 -3.54,7.6 -7.9,7.6 -4.36,0 -7.9,-3.4 -7.9,-7.6 0,-4.19 3.54,-7.59 7.9,-7.59 4.36,0 7.9,3.4 7.9,7.59"
         style="fill:#6c86ad;fill-opacity:1;fill-rule:evenodd;stroke:none;stroke-width:0.1"
         id="path90" /><path
         d="m 1340.61,1196.73 c -0.74,0 -1.48,0.2 -2.17,0.6 -0.75,0.45 -1.76,1.17 -2.95,2.02 -3.04,2.18 -7.64,5.48 -11.65,6.3 -2.78,0.59 -5.54,0.44 -8.46,0.3 -3.42,-0.18 -7.3,-0.37 -11.63,0.59 -8.28,1.82 -11.77,4.82 -15.67,10.06 -1.39,1.87 -1.01,4.52 0.87,5.91 1.87,1.4 4.51,1 5.91,-0.87 2.78,-3.74 4.63,-5.51 10.7,-6.85 3.24,-0.72 6.23,-0.57 9.4,-0.41 3.32,0.18 6.76,0.34 10.59,-0.45 5.76,-1.19 11.24,-5.12 14.87,-7.71 0.95,-0.69 1.75,-1.28 2.36,-1.64 2.01,-1.2 2.66,-3.79 1.46,-5.79 -0.8,-1.33 -2.19,-2.06 -3.63,-2.06"
         style="fill:#6c86ad;fill-opacity:1;fill-rule:nonzero;stroke:none;stroke-width:0.1"
         id="path92" /><path
         d="m 1319.09,1182.3 c -1.08,0 -2.16,0.41 -2.99,1.24 -2.99,2.99 -9.1,6.03 -13.63,6.78 -2.31,0.38 -3.86,2.56 -3.48,4.86 0.39,2.3 2.57,3.89 4.86,3.47 6.31,-1.04 13.98,-4.89 18.22,-9.14 1.65,-1.65 1.65,-4.32 0,-5.97 -0.82,-0.83 -1.9,-1.24 -2.98,-1.24"
         style="fill:#6c86ad;fill-opacity:1;fill-rule:nonzero;stroke:none;stroke-width:0.1"
         id="path94" /><path
         d="m 854.105,901.84 c -0.945,0 -1.897,0.318 -2.686,0.966 -2.924,2.417 -4.905,5.66 -6.646,8.519 -0.796,1.303 -1.58,2.599 -2.446,3.775 -5.998,8.147 -11.019,17.359 -15.874,26.27 -1.68,3.086 -3.351,6.151 -5.042,9.134 -6.015,10.594 -16.003,19.225 -25.664,27.575 -4.885,4.224 -9.934,8.588 -14.415,13.16 -10.054,10.261 -20.289,20.401 -30.603,30.481 -4.207,4.11 -9.451,9.23 -14.673,11.94 -13.016,6.77 -26.49,9.48 -40.751,12.36 l -9.868,2.05 c -7.74,1.69 -15.046,3.29 -22.657,1.34 -4.873,-1.25 -8.693,-3.32 -13.115,-5.72 -3.862,-2.09 -8.235,-4.46 -14.051,-6.7 -3.948,-1.53 -8.062,-2.55 -12.034,-3.54 -8.029,-2.01 -14.959,-3.73 -16.597,-8.49 -0.289,-0.84 -0.223,-1.46 0.243,-2.22 2.331,-3.81 11.927,-7.04 17.959,-7.9 8.609,-1.23 15.816,-1.55 22.038,-0.96 2.256,0.22 4.525,0.51 6.794,0.8 11.065,1.41 22.492,2.88 33.552,-3.66 l 3.577,-2.08 c 4.497,-2.58 9.15,-5.25 13.193,-8.58 2.31,-1.914 2.777,-5.09 3.115,-7.409 l 0.152,-0.941 c 1.247,-5.569 2.925,-11.023 4.683,-16.584 5.033,-15.941 17.17,-32.83 30.211,-42.022 1.906,-1.345 2.363,-3.981 1.019,-5.887 -1.353,-1.91 -3.981,-2.36 -5.888,-1.019 -14.661,10.334 -27.768,28.54 -33.399,46.382 -1.741,5.512 -3.556,11.395 -4.872,17.303 -0.095,0.412 -0.178,0.944 -0.264,1.543 -0.099,0.689 -0.309,2.12 -0.545,2.57 -3.081,2.425 -7.417,4.913 -11.613,7.324 l -3.671,2.13 c -8.569,5.06 -18.099,3.84 -28.173,2.55 -2.364,-0.3 -4.724,-0.6 -7.075,-0.82 -6.911,-0.66 -14.765,-0.33 -24.031,0.99 -0.181,0.03 -18.387,2.73 -23.973,11.86 -1.778,2.91 -2.129,6.15 -1.019,9.38 3.127,9.1 12.995,11.56 22.537,13.93 3.73,0.93 7.579,1.89 11.04,3.23 5.309,2.05 9.254,4.18 13.065,6.25 4.712,2.55 9.159,4.96 15.037,6.47 9.555,2.44 18.198,0.56 26.564,-1.27 l 9.732,-2.02 c 14.864,-2.99 28.907,-5.82 42.979,-13.14 6.337,-3.3 12.075,-8.89 16.683,-13.39 10.359,-10.13 20.636,-20.31 30.731,-30.616 4.237,-4.323 8.935,-8.383 13.907,-12.681 10.202,-8.82 20.754,-17.937 27.487,-29.798 1.717,-3.029 3.412,-6.135 5.116,-9.261 4.72,-8.664 9.6,-17.621 15.256,-25.302 1.007,-1.366 1.931,-2.871 2.854,-4.389 1.536,-2.513 2.983,-4.89 4.815,-6.399 1.799,-1.486 2.055,-4.15 0.569,-5.949 -0.837,-1.011 -2.046,-1.535 -3.263,-1.535"
         style="fill:#6c86ad;fill-opacity:1;fill-rule:nonzero;stroke:none;stroke-width:0.1"
         id="path96" /><path
         d="m 727.21,1038.77 c -0.779,0 -1.567,0.21 -2.268,0.66 -0.285,0.18 -28.573,18.22 -41.593,22.7 -11.085,3.82 -22.253,5.26 -34.077,6.8 -6.291,0.81 -12.606,1.63 -18.935,2.82 -4.893,0.92 -9.773,1.96 -14.658,3.01 -7.562,1.62 -15.384,3.3 -23.065,4.44 -12.764,1.89 -28.804,1.63 -47.381,1.33 l -7.31,-0.11 c -5.499,-0.06 -11.733,0.21 -18.02,0.5 -10.676,0.48 -32.863,1.52 -33.338,-2.79 -0.417,-3.78 9.361,-9.8 28.858,-14 9.08,-1.96 18.556,-2.87 27.719,-3.74 5.351,-0.52 10.705,-1.03 16.056,-1.74 11.497,-1.53 27.731,-4.96 40.776,-7.71 l 8.762,-1.84 c 2.286,-0.48 3.754,-2.71 3.284,-4.99 -0.474,-2.29 -2.719,-3.72 -4.992,-3.29 l -8.799,1.85 c -12.905,2.72 -28.965,6.12 -40.145,7.6 -5.248,0.7 -10.499,1.21 -15.747,1.7 -9.406,0.91 -19.129,1.84 -28.696,3.9 -16.948,3.65 -36.861,10.65 -35.475,23.19 1.349,12.2 21.167,11.27 42.129,10.3 6.114,-0.29 12.166,-0.59 17.513,-0.5 l 7.289,0.12 c 18.948,0.3 35.298,0.56 48.755,-1.42 7.945,-1.18 15.903,-2.88 23.597,-4.53 4.814,-1.04 9.629,-2.07 14.447,-2.98 6.168,-1.16 12.327,-1.95 18.462,-2.75 11.72,-1.51 23.841,-3.08 35.747,-7.18 13.964,-4.81 42.191,-22.8 43.383,-23.57 1.968,-1.26 2.541,-3.87 1.287,-5.83 -0.804,-1.26 -2.17,-1.95 -3.565,-1.95"
         style="fill:#6c86ad;fill-opacity:1;fill-rule:nonzero;stroke:none;stroke-width:0.1"
         id="path98" /><path
         d="m 675.16,985.698 c -2.397,0 -4.645,0.207 -6.497,0.376 -10.075,0.92 -19.881,3.42 -29.366,5.837 -4.67,1.188 -9.331,2.381 -14.009,3.375 -2.175,0.466 -4.456,0.911 -6.799,1.365 -9.555,1.869 -20.38,3.979 -28.924,8.279 -7.648,3.85 -12.236,10.84 -12.269,18.7 -0.028,8.45 5.12,16.36 13.445,20.62 13.742,7.01 27.467,4.14 41.498,0.27 2.248,-0.62 3.568,-2.94 2.949,-5.19 -0.619,-2.25 -2.945,-3.57 -5.193,-2.95 -12.826,3.53 -24.345,6 -35.405,0.35 -5.474,-2.81 -8.861,-7.81 -8.845,-13.06 0.021,-4.69 2.797,-8.76 7.62,-11.19 7.504,-3.78 17.727,-5.77 26.745,-7.54 2.389,-0.46 4.715,-0.92 6.935,-1.39 4.793,-1.02 9.562,-2.23 14.34,-3.45 9.162,-2.339 18.638,-4.752 28.045,-5.611 4.302,-0.391 11.493,-1.047 14.608,2.257 1.126,1.189 2.657,2.81 -0.833,6.454 -1.618,1.69 -1.56,4.36 0.128,5.97 1.678,1.62 4.348,1.56 5.969,-0.13 5.668,-5.91 5.998,-12.673 0.883,-18.09 -4.043,-4.299 -9.876,-5.252 -15.025,-5.252"
         style="fill:#6c86ad;fill-opacity:1;fill-rule:nonzero;stroke:none;stroke-width:0.1"
         id="path100" /><path
         d="m 663.171,951.412 c -14.496,0 -29.559,0.738 -44.418,3.684 l -2.785,0.536 c -6.527,1.246 -13.28,2.533 -19.402,5.875 -9.703,5.293 -13.308,16.638 -8.774,27.586 4.071,9.823 19.591,16.677 29.48,15.447 2.314,-0.3 3.948,-2.42 3.655,-4.733 -0.293,-2.314 -2.36,-3.964 -4.728,-3.655 -6.378,0.8 -18.148,-4.369 -20.602,-10.293 -2.389,-5.763 -1.762,-13.238 5.012,-16.935 4.963,-2.706 11.057,-3.869 16.943,-4.992 l 2.843,-0.552 c 18.127,-3.586 36.815,-3.734 54.348,-3.383 6.621,0.136 12.013,4.067 13.21,7.632 0.4,1.196 0.643,3.019 -1.902,5.024 -6.955,5.5 -18.862,7.579 -28.425,9.246 -2.289,0.4 -4.459,0.779 -6.418,1.176 -4.74,0.961 -9.295,1.547 -14.188,2.182 -5.305,0.684 -10.998,1.423 -17.71,2.706 -2.294,0.437 -3.796,2.653 -3.358,4.942 0.437,2.298 2.652,3.787 4.942,3.359 6.522,-1.246 12.055,-1.96 17.211,-2.628 5.099,-0.66 9.839,-1.28 14.778,-2.278 1.893,-0.383 3.985,-0.751 6.196,-1.134 10.504,-1.832 23.581,-4.113 32.212,-10.941 4.694,-3.708 6.443,-9.072 4.673,-14.344 -2.537,-7.558 -11.39,-13.189 -21.047,-13.391 -3.862,-0.079 -7.781,-0.136 -11.746,-0.136"
         style="fill:#6c86ad;fill-opacity:1;fill-rule:nonzero;stroke:none;stroke-width:0.1"
         id="path102" /><path
         d="m 622.387,923.969 c -2.133,0 -4.443,0.14 -6.922,0.425 -2.191,0.248 -4.385,0.458 -6.58,0.664 -2.872,0.268 -5.743,0.541 -8.598,0.904 -1.481,0.19 -3.131,0.347 -4.884,0.516 -9.708,0.94 -23,2.223 -29.547,10.503 -3.881,4.905 -4.653,10.544 -2.169,15.879 4.971,10.668 21.757,17.611 29.241,17.838 2.45,-0.091 4.282,-1.765 4.352,-4.096 0.066,-2.335 -1.766,-4.283 -4.097,-4.353 -5.347,-0.157 -18.535,-5.874 -21.836,-12.958 -1.142,-2.455 -0.792,-4.633 1.135,-7.071 4.315,-5.458 15.54,-6.538 23.733,-7.331 1.845,-0.177 3.581,-0.346 5.137,-0.544 2.764,-0.355 5.544,-0.615 8.325,-0.875 2.252,-0.215 4.505,-0.425 6.749,-0.685 9.299,-1.052 14.125,0.355 15.541,2.038 0.346,0.408 0.391,0.669 0.35,1.007 -0.193,1.736 -2.661,4.694 -5.994,7.187 -6.848,5.135 -18.383,8.506 -33.359,9.76 -2.326,0.194 -4.055,2.236 -3.857,4.559 0.19,2.327 2.142,4.134 4.559,3.857 16.799,-1.399 29.489,-5.239 37.719,-11.415 3.201,-2.393 8.68,-7.273 9.327,-12.991 0.31,-2.714 -0.482,-5.276 -2.289,-7.413 -3.028,-3.598 -8.408,-5.405 -16.036,-5.405"
         style="fill:#6c86ad;fill-opacity:1;fill-rule:nonzero;stroke:none;stroke-width:0.1"
         id="path104" /><path
         d="m 766.584,831.687 c -1.856,0 -3.561,1.238 -4.072,3.111 -0.318,1.171 -2.912,3.977 -4.311,5.478 -1.147,1.246 -2.199,2.393 -2.892,3.326 -8.956,12.021 -20.306,19.505 -36.795,24.266 -23.449,6.781 -42.9,18.391 -65.895,32.862 -4.415,2.777 -9.494,5.083 -14.407,7.307 l -4.014,1.836 c -4.938,2.293 -9.438,5.425 -13.795,8.457 -2.987,2.079 -5.969,4.162 -9.068,5.928 -2.025,1.155 -2.735,3.738 -1.58,5.763 1.151,2.03 3.725,2.744 5.764,1.58 3.316,-1.889 6.514,-4.108 9.711,-6.336 4.245,-2.954 8.255,-5.747 12.525,-7.727 l 3.948,-1.803 c 5.169,-2.343 10.515,-4.769 15.417,-7.851 22.421,-14.117 41.353,-25.421 63.737,-31.898 18.132,-5.231 31.23,-13.919 41.226,-27.335 0.553,-0.742 1.407,-1.65 2.318,-2.632 2.534,-2.731 5.401,-5.833 6.263,-8.994 0.614,-2.252 -0.714,-4.579 -2.966,-5.19 -0.372,-0.098 -0.743,-0.148 -1.114,-0.148"
         style="fill:#6c86ad;fill-opacity:1;fill-rule:nonzero;stroke:none;stroke-width:0.1"
         id="path106" /><g
         id="g108"
         transform="scale(0.121166)"><path
           d="m 14584.3,6937.59 c -6.1,0 -12.1,1.57 -17.7,4.78 -16.6,9.73 -22.2,31.11 -12.5,47.72 15.9,27.11 34.9,53.74 53.9,80.5 32,44.74 65,91.05 80.9,139.32 l 13.4,41.2 c 29.1,90.71 62.2,193.57 115.8,269.9 34,48.45 71.6,95.06 107.8,140.14 44.4,55.29 90.4,112.46 128.8,171.81 52,80.11 110.8,165.91 161.7,235.37 56.2,76.81 79.4,87.91 193.5,134.01 77.7,31.42 111.4,39.97 154,50.8 19,4.8 39.9,10.14 68.1,18.36 99.9,29.17 143.6,8.95 185.9,-10.56 15,-6.95 23.6,-11.72 32.4,-16.62 26.9,-15.02 54.6,-30.57 150.7,-43.68 l 39.3,-5.07 c 104.8,-13.15 213.2,-26.74 245.1,-91.49 14.6,-29.49 10.9,-63.33 -10.9,-100.57 -41,-70.05 -146.6,-111.27 -207.5,-121.9 -79.2,-13.86 -150.9,0.27 -220.3,13.95 -95.2,18.81 -177.5,35.05 -266,-22.7 -16.2,-10.42 -37.8,-5.96 -48.3,10.18 -10.5,16.14 -6,37.72 10.1,48.24 112.4,73.18 216.8,52.58 317.8,32.73 65.9,-13.04 128.2,-25.41 194.7,-13.69 57.7,10.04 134.9,46.67 159.3,88.39 5.2,8.84 13.2,25.13 8.6,34.52 -15.3,31.08 -125.5,44.91 -191.3,53.15 l -39.9,5.14 c -109.3,14.95 -144.5,34.59 -175.5,51.92 -7.2,4.05 -14.2,8.04 -22.4,11.81 -42.7,19.73 -67.3,31.12 -142.3,9.3 -29.1,-8.51 -50.8,-14.03 -70.4,-18.99 -41.7,-10.59 -71.8,-18.22 -145,-47.84 -106.2,-42.87 -117.2,-47.37 -163.5,-110.56 -50,-68.43 -108.2,-153.08 -159.3,-232.14 -40.4,-62.31 -87.5,-120.9 -133.1,-177.56 -35.5,-44.22 -72.3,-89.91 -105,-136.56 -47.6,-67.66 -78.9,-165.16 -106.6,-251.17 l -13.5,-41.61 c -19.2,-58.36 -55.4,-109.02 -90.3,-158.05 -17.8,-25.05 -35.7,-49.85 -50.5,-75.24 -6.4,-11.04 -18.2,-17.24 -30,-17.24"
           style="fill:#6c86ad;fill-opacity:1;fill-rule:nonzero;stroke:none"
           id="path110" /></g><g
         id="g112"
         transform="scale(0.130141)"><path
           d="m 15282.5,7587.2 c -12.8,0 -25.1,7.7 -30.1,20.41 -6.6,16.64 1.4,35.53 18,42.19 61,24.32 175.1,43.97 258.6,58.33 l 38.5,6.69 c 36.4,6.53 66.1,12.21 92.4,17.18 88.5,16.87 137.3,26.16 262.6,35 l 21,1.46 c 89.8,6.02 212.7,14.26 276.4,72.71 11.5,10.62 9.6,17.35 8.6,20.54 -5.5,19.06 -39.7,44.58 -85.2,52.6 -52,9.13 -134.8,8.81 -215.1,8.01 -41.1,-0.25 -82.3,-0.53 -121.2,0.33 -87.1,1.89 -160.4,2.85 -246.4,-3.14 -54.1,-3.87 -121.5,-14.9 -200.3,-32.85 -35.3,-8.04 -75.7,-15.08 -117.6,-22.44 -56.3,-9.83 -114.7,-20 -167.1,-33.76 l -13.1,-3.38 c -152.4,-39.82 -272.8,-71.31 -408.6,-159.91 -15.2,-9.76 -35.2,-5.58 -45,9.48 -9.7,15.03 -5.5,35.13 9.5,44.92 144.7,94.34 269.6,126.99 427.7,168.33 l 13,3.4 c 55.1,14.42 114.7,24.81 172.4,34.89 40.8,7.14 80,13.95 114.3,21.75 83.2,18.96 152,30.18 210.2,34.29 88.7,6.31 163.6,5.34 252.4,3.33 38.4,-0.82 79,-0.54 119.3,-0.31 86.9,0.63 169.1,1.17 226.9,-9.04 67.8,-11.92 122.6,-51.44 136.2,-98.27 9.2,-31.38 -0.4,-62.13 -27.1,-86.57 -80.4,-73.89 -216.5,-83.02 -315.8,-89.71 l -20.8,-1.4 c -121.5,-8.58 -168.9,-17.62 -255,-34.04 -26.5,-5.01 -56.5,-10.71 -93.2,-17.31 l -38.8,-6.78 c -76.1,-13.06 -191,-32.84 -245.5,-54.61 -4,-1.59 -8.1,-2.32 -12.1,-2.32"
           style="fill:#6c86ad;fill-opacity:1;fill-rule:nonzero;stroke:none"
           id="path114" /></g><g
         id="g116"
         transform="scale(0.122807)"><path
           d="m 16180.1,7685.18 -61.4,31.11 c 0,0.03 38.8,76.52 50.4,100.41 25.7,52.97 57.8,129.5 39.2,181.6 -7.7,21.6 -24.1,37.99 -50.2,50.09 -36.9,17.33 -132.4,-17.77 -187.9,-48.28 -16.4,-8.93 -37.5,-3.12 -46.6,13.61 -9.2,16.66 -3.1,37.59 13.6,46.72 27.4,15.06 168,88.32 249.9,50.37 43,-19.99 72,-50.1 86,-89.43 26.9,-75.62 -8.4,-165.18 -42.2,-234.78 -11.8,-24.15 -50.8,-101.42 -50.8,-101.42"
           style="fill:#6c86ad;fill-opacity:1;fill-rule:nonzero;stroke:none"
           id="path118" /></g><g
         id="g120"
         transform="scale(0.121538)"><path
           d="m 15640.4,7616.26 c -44.6,0 -83.5,16.4 -111.9,61.3 -16.8,26.57 -20.9,57.33 -12,88.96 24.2,85 135.6,155.33 176.4,175.23 17.2,8.34 38.1,1.35 46.5,-15.99 8.4,-17.28 1.3,-38.09 -16,-46.47 -49.9,-24.34 -126.3,-83.64 -140,-131.74 -3.6,-12.79 -2.4,-22.91 3.8,-32.82 33.3,-52.62 109,-25.09 229.4,26.44 26.4,11.34 54.5,24.3 83.9,37.94 105,48.61 223.9,103.71 355.9,126.88 18.6,3.1 36.9,-9.26 40.2,-28.23 3.4,-18.91 -9.3,-36.93 -28.1,-40.26 -123.1,-21.58 -237.7,-74.65 -338.8,-121.45 -30.1,-13.95 -58.7,-27.22 -85.6,-38.77 -70.7,-30.2 -142.5,-61.02 -203.7,-61.02"
           style="fill:#6c86ad;fill-opacity:1;fill-rule:nonzero;stroke:none"
           id="path122" /></g><g
         id="g124"
         transform="scale(0.122574)"><path
           d="m 15494,7194.5 c -33.4,0 -67.8,5.86 -96.1,23.3 -31.8,19.59 -50.9,51.15 -55.2,91.24 -12.8,120.55 187.1,220.55 393,312.67 17.1,7.7 32.5,14.57 45.3,20.46 15.7,7.37 31.4,15.01 47,22.61 64,31.15 130.1,63.35 204.2,76.78 44.9,8.18 138.4,25.15 191.4,-24.13 75.1,-69.57 76.4,-262.76 2.6,-397.49 -9.2,-16.73 -30.2,-22.58 -46.8,-13.7 -16.7,9.2 -22.8,30.13 -13.6,46.82 64.9,118.64 53.1,274.78 10.9,313.85 -27.8,25.74 -103.4,12.01 -132.1,6.8 -64.9,-11.72 -123.9,-40.46 -186.4,-70.88 -16,-7.81 -32,-15.62 -48.2,-23.12 -13,-6.06 -28.6,-13.06 -46.2,-20.9 -98.8,-44.2 -361.1,-161.63 -352.6,-242.43 2.7,-24.81 14.3,-34.64 22.9,-39.89 39.1,-24.17 122.1,-10.3 168.7,7.14 80.3,30.13 148.1,53.41 256.6,83.37 53.2,14.66 95.2,21.23 135.9,27.6 45.1,7.06 87.8,13.73 139.3,31.53 18.1,6.26 37.6,-3.36 43.8,-21.3 6.2,-18.01 -3.3,-37.64 -21.3,-43.86 -57.3,-19.83 -102.9,-26.92 -151.2,-34.46 -38.8,-6.06 -78.8,-12.32 -128.3,-25.99 -106.5,-29.42 -170.2,-51.29 -250.6,-81.38 -3.9,-1.48 -66.6,-24.64 -133,-24.64"
           style="fill:#6c86ad;fill-opacity:1;fill-rule:nonzero;stroke:none"
           id="path126" /></g><g
         id="g128"
         transform="scale(0.122775)"><path
           d="m 15183,6496.98 c -8.9,0 -17.7,3.42 -24.4,10.18 -13.4,13.52 -13.2,35.27 0.2,48.71 13.8,13.52 136.4,133.82 204.6,161.51 40.2,16.46 77.3,23.71 113.1,30.63 38.4,7.57 74.7,14.68 113,32.76 45.3,21.37 89.7,39.98 129.8,56.72 38.4,16.06 72.7,30.38 99.4,43.89 37.8,19.22 89.4,36.69 130.9,50.73 20.9,7.05 39.3,13.31 51.9,18.41 90.1,36.56 193.8,112.5 215,216.13 8.9,43.28 -34.9,114.78 -76.9,125.4 -66.3,16.6 -269.7,-17.13 -392.9,-46.57 -10.3,-2.49 -23.1,-4.57 -37.1,-6.92 -38.2,-6.25 -102.1,-16.74 -107.5,-43.34 -7.7,-37.23 41.4,-76.42 78.6,-87.11 84.5,-24.25 162.6,-20.9 245,-17.4 33.4,1.42 68,2.49 103.4,2.69 19.1,-0.07 34.4,-15.59 34.3,-34.55 -0.1,-18.94 -15.5,-34.27 -34.4,-34.27 -0.1,0 -0.1,0 -0.1,0 -36.2,0.54 -67.9,-1.27 -100.1,-2.62 -88.3,-3.83 -171.7,-7.32 -267,20.03 -61.5,17.6 -144.5,82.86 -127.3,167.06 15,73.06 104.6,87.74 164,97.45 12.1,1.98 23.3,3.8 32.2,5.91 3.2,0.75 314.8,74.33 425.9,46.34 76.8,-19.48 143.4,-127.25 127.4,-205.94 -26.8,-130.24 -150.1,-222.85 -256.6,-265.99 -13.6,-5.58 -33.3,-12.3 -55.6,-19.83 -39.5,-13.37 -88.4,-29.97 -122,-47.04 -27.9,-14.11 -63.7,-29.16 -104.1,-45.97 -39.1,-16.36 -82.6,-34.52 -126.8,-55.46 -46.1,-21.66 -88.4,-29.97 -129.2,-37.95 -34,-6.68 -66.3,-13.03 -100.4,-26.88 -47.1,-19.14 -147.4,-112.4 -182.1,-146.77 -6.7,-6.68 -15.4,-9.94 -24.2,-9.94"
           style="fill:#6c86ad;fill-opacity:1;fill-rule:nonzero;stroke:none"
           id="path130" /></g><g
         id="g132"
         transform="scale(0.120539)"><path
           d="m 16260.1,7078.78 c -11.4,0 -22.6,5.55 -29.2,15.75 -5.1,7.53 -15.6,17.39 -25.8,26.97 -13.4,12.39 -27.2,25.32 -36.9,40.04 -10.6,16.22 -6.2,37.92 9.9,48.6 16.1,10.68 37.9,6.16 48.6,-10 5.1,-7.79 15.9,-17.79 26.2,-27.44 13.3,-12.32 26.9,-25.05 36.4,-39.56 10.7,-16.17 6.2,-37.86 -9.9,-48.54 -5.9,-3.97 -12.7,-5.82 -19.3,-5.82"
           style="fill:#6c86ad;fill-opacity:1;fill-rule:nonzero;stroke:none"
           id="path134" /></g><g
         id="g136"
         transform="scale(0.115389)"><path
           d="m 15941.5,7486.12 c -11.9,0 -23.6,5.79 -30.6,16.45 -11.1,16.87 -6.5,39.62 10.4,50.7 165.3,109.04 255.9,313.33 302.8,465.49 6,19.35 26.4,30.25 45.7,24.21 19.4,-5.97 30.2,-26.46 24.2,-45.8 -50.4,-163.6 -149,-383.98 -332.4,-504.96 -6.2,-4.15 -13.2,-6.09 -20.1,-6.09"
           style="fill:#6c86ad;fill-opacity:1;fill-rule:nonzero;stroke:none"
           id="path138" /></g><path
         d="m 1327.23,1061.85 c -2.33,0 -4.22,1.89 -4.22,4.22 l -0.11,49.26 c 0,2.33 1.89,4.22 4.23,4.22 2.33,0 4.22,-1.89 4.22,-4.22 l 0.11,-49.26 c 0,-2.33 -1.89,-4.22 -4.23,-4.22"
         style="fill:#6c86ad;fill-opacity:1;fill-rule:nonzero;stroke:none;stroke-width:0.1"
         id="path140" /><path
         d="m 1526.59,1114.27 c -0.07,0 -0.15,0 -0.22,0 -2.33,0.13 -4.12,2.11 -3.99,4.45 2.15,40.99 5.1,84.39 15.13,124.55 0.56,2.27 2.82,3.65 5.12,3.07 2.26,-0.57 3.64,-2.86 3.08,-5.12 -9.86,-39.43 -12.76,-82.36 -14.9,-122.95 -0.12,-2.25 -1.98,-4 -4.22,-4"
         style="fill:#6c86ad;fill-opacity:1;fill-rule:nonzero;stroke:none;stroke-width:0.1"
         id="path142" /><g
         id="g144"
         transform="scale(0.11586)"><path
           d="m 15732.4,6805.14 c -111.9,0 -205.8,34.7 -305.4,109.79 -203.9,153.72 -272.1,330.35 -202.4,525.05 6.7,19.01 27.5,28.7 46.5,22.08 19,-6.76 28.8,-27.63 22.1,-46.58 -77.8,-217.77 64.1,-356.67 177.7,-442.29 114.8,-86.57 216.4,-110.66 361.7,-85.88 171.1,29 374,110.56 391.8,181.25 5,19.42 24.4,31.16 44.3,26.5 19.5,-4.92 31.3,-24.77 26.5,-44.36 -33,-131.29 -309,-211.38 -450.3,-235.38 -39.8,-6.73 -77.1,-10.18 -112.5,-10.18"
           style="fill:#6c86ad;fill-opacity:1;fill-rule:nonzero;stroke:none"
           id="path146" /></g><path
         d="m 771.675,831.258 c -8.524,0 -16.84,2.154 -24.53,7.129 -1.956,1.271 -2.517,3.886 -1.246,5.842 1.267,1.972 3.886,2.508 5.842,1.253 30.676,-19.882 74.109,16.016 90.545,39.646 5.714,8.226 11.13,17.793 7.962,26.424 -0.805,2.19 0.317,4.616 2.508,5.421 2.207,0.804 4.617,-0.322 5.421,-2.509 4.505,-12.269 -1.997,-24.154 -8.952,-34.154 -16.209,-23.301 -48.074,-49.043 -77.55,-49.052"
         style="fill:#6c86ad;fill-opacity:1;fill-rule:nonzero;stroke:none;stroke-width:0.1"
         id="path148" /><path
         d="m 1376.04,154.24 c -1.72,0 -3.33,1.06 -3.96,2.76 -15.08,40.8 -8.47,105.66 -1.48,174.32 l 1.91,18.94 c 3.69,36.91 3.37,98.34 3.17,138.98 -0.09,18.66 -0.16,32.14 0.16,37.97 3.18,57.12 2.36,108.62 -2.49,157.46 -7.56,76.4 -2.8,152.314 12.72,203.099 12.17,39.76 16.93,71.238 21.12,99.01 l 1.34,8.858 c 3.25,21.113 24.78,32.163 43.77,41.903 10.05,5.16 19.55,10.04 25.94,15.9 16.25,14.91 25.42,31.8 32.78,45.36 1.47,2.72 2.86,5.27 4.2,7.61 2.45,4.31 6.3,8.96 10.37,13.88 10.1,12.23 22.68,27.45 21.03,45.73 -0.21,2.32 1.5,4.38 3.83,4.59 2.26,0.22 4.38,-1.5 4.58,-3.83 1.96,-21.74 -11.84,-38.45 -22.93,-51.87 -3.83,-4.64 -7.45,-9.01 -9.54,-12.69 -1.31,-2.29 -2.67,-4.79 -4.12,-7.45 -7.26,-13.37 -17.2,-31.69 -34.49,-47.55 -7.22,-6.64 -17.22,-11.76 -27.79,-17.19 -18.03,-9.26 -36.68,-18.82 -39.28,-35.68 l -1.34,-8.833 c -4.24,-28.058 -9.03,-59.861 -21.38,-100.224 -15.22,-49.761 -19.86,-124.443 -12.39,-199.793 4.89,-49.28 5.71,-101.21 2.5,-158.75 -0.3,-5.58 -0.24,-19.65 -0.14,-37.47 0.2,-40.81 0.52,-102.51 -3.21,-139.86 L 1379,330.46 c -6.89,-67.65 -13.39,-131.57 1,-170.54 0.81,-2.18 -0.31,-4.61 -2.5,-5.42 -0.48,-0.18 -0.97,-0.26 -1.46,-0.26"
         style="fill:#6c86ad;fill-opacity:1;fill-rule:nonzero;stroke:none;stroke-width:0.1"
         id="path150" /><path
         d="m 1390.99,891.506 c -1.54,0 -3.04,0.858 -3.78,2.344 -12.5,25.004 -14.69,45.239 -17,66.658 -0.83,7.665 -0.69,15.26 -0.55,22.608 0.28,14.497 0.54,28.184 -7.14,38.614 -3.47,4.7 -8.39,9.13 -14.08,14.26 -14.12,12.7 -31.69,28.52 -40.57,60.45 -0.63,2.24 0.69,4.57 2.94,5.2 2.23,0.6 4.57,-0.69 5.2,-2.94 8.22,-29.56 24.78,-44.46 38.08,-56.43 5.79,-5.21 11.25,-10.13 15.23,-15.53 9.38,-12.74 9.08,-28.521 8.79,-43.785 -0.13,-7.084 -0.27,-14.406 0.5,-21.535 2.33,-21.543 4.34,-40.149 16.16,-63.796 1.04,-2.092 0.2,-4.624 -1.89,-5.664 -0.61,-0.305 -1.25,-0.454 -1.89,-0.454"
         style="fill:#6c86ad;fill-opacity:1;fill-rule:nonzero;stroke:none;stroke-width:0.1"
         id="path152" /><g
         id="g154"
         transform="scale(0.11655)"><path
           d="m 15144.9,3332.48 c -9.3,0 -18.5,0.26 -27.7,0.78 -282.6,15.18 -496.5,247.96 -652.6,417.93 -58,62.98 -108,117.37 -143.9,139.85 -17,10.64 -22.2,32.95 -11.6,49.94 10.6,16.99 33.2,22.05 49.9,11.5 44.4,-27.63 94.9,-82.72 158.9,-152.3 147.8,-160.7 350.2,-380.95 603.1,-394.6 355.4,-19.04 650.1,408.33 717.7,566.12 57.4,133.84 83.6,338.65 104.6,503.21 5,39.21 9.8,76.45 14.6,110.43 16.7,116.86 47.9,249.68 80.8,390.22 38.8,165.59 79,336.85 92.7,477.05 19.3,195.97 7.9,341.91 -3.2,483.14 -8.4,107.94 -16.4,209.95 -8.4,321.07 15.9,218.7 44.5,357.87 65.6,459.46 26,126.12 40.3,195.53 13.5,305.62 -4.7,19.39 7.2,39.04 26.6,43.67 19.8,4.89 39.2,-7.21 43.8,-26.6 30.7,-125.78 13.3,-209.95 -13,-337.28 -21.7,-105.19 -48.7,-236.12 -64.2,-450.11 -7.6,-105.62 0.2,-204.97 8.4,-310.25 10.8,-137.54 23.1,-293.53 3.1,-495.84 -14.3,-144.92 -55,-318.58 -94.3,-486.49 -32.6,-138.91 -63.4,-270.18 -79.7,-383.96 -4.8,-33.63 -9.4,-70.44 -14.4,-109.22 -21.6,-169.11 -48.4,-379.49 -109.8,-522.78 -53,-123.64 -351.3,-610.47 -760.5,-610.56"
           style="fill:#6c86ad;fill-opacity:1;fill-rule:nonzero;stroke:none"
           id="path156" /></g><path
         d="m 976.688,379.67 c -0.061,0 -0.123,0 -0.189,0 -18.313,0.08 -36.605,10.12 -54.365,29.86 -7.335,8.14 -15.475,16.73 -23.672,25.39 -24.864,26.25 -50.57,53.38 -56.387,71.16 -8.745,26.72 -21.122,52.85 -32.042,75.91 -2.471,5.21 -5.116,10.44 -7.781,15.71 -7.565,14.96 -15.387,30.43 -19.818,46.66 -3.123,11.45 -3.433,21.52 -3.767,32.18 -0.127,4.16 -0.255,8.39 -0.569,12.79 l -0.54,7.84 c -1.094,16.28 -2.042,30.35 -6.019,46.27 -5.256,21.01 -8.078,31.98 -14.757,51.63 -0.97,2.85 -1.985,5.71 -2.995,8.56 -6.3,17.68 -12.249,34.377 -6.559,48.239 0.886,2.161 3.345,3.193 5.511,2.31 2.157,-0.891 3.189,-3.358 2.302,-5.512 -4.456,-10.874 0.965,-26.097 6.704,-42.207 1.023,-2.88 2.054,-5.78 3.04,-8.67 6.782,-19.97 9.637,-31.06 14.946,-52.3 4.163,-16.66 5.133,-31.06 6.255,-47.76 l 0.536,-7.79 c 0.322,-4.53 0.458,-8.87 0.59,-13.14 0.318,-10.15 0.615,-19.73 3.473,-30.21 4.205,-15.41 11.832,-30.49 19.208,-45.08 2.695,-5.34 5.372,-10.63 7.872,-15.91 11.032,-23.28 23.527,-49.67 32.439,-76.89 5.227,-15.97 30.272,-42.41 54.493,-67.98 8.246,-8.71 16.435,-17.35 23.816,-25.55 15.874,-17.65 32.512,-27 48.119,-27.06 0.05,0 0.103,0 0.153,0 13.477,0 26.495,6.77 38.695,20.12 4.44,4.86 8.43,9.01 12.13,12.83 21.5,22.26 32.29,33.44 60.43,115.02 0.75,2.21 3.16,3.38 5.37,2.62 2.2,-0.76 3.37,-3.17 2.61,-5.38 -28.74,-83.35 -40.67,-95.71 -62.33,-118.12 -3.65,-3.79 -7.6,-7.87 -11.97,-12.66 -13.87,-15.18 -28.987,-22.88 -44.932,-22.88"
         style="fill:#6c86ad;fill-opacity:1;fill-rule:nonzero;stroke:none;stroke-width:0.1"
         id="path158" /><path
         d="m 936.837,743.72 c -1.915,0 -3.647,1.31 -4.109,3.25 -3.391,14.35 1.081,21.98 7.846,33.52 5.021,8.56 11.898,20.3 18.359,40.03 5.656,17.297 10.783,37.595 16.209,59.088 15.717,62.253 33.538,132.812 72.378,157.522 20.06,12.76 53.07,28.19 81.6,33.89 4.97,1 10.96,2.14 17.51,3.38 28.35,5.4 71.19,13.56 81.74,19.89 0.68,0.4 1.48,0.93 2.41,1.52 7.81,5.06 22.37,14.47 34.89,7.46 2.04,-1.14 2.77,-3.72 1.62,-5.75 -1.14,-2.04 -3.71,-2.77 -5.74,-1.62 -8.11,4.52 -19.86,-3.09 -26.18,-7.18 -1.02,-0.65 -1.91,-1.23 -2.65,-1.68 -10.95,-6.56 -44.75,-13.36 -84.51,-20.94 -6.52,-1.24 -12.48,-2.37 -17.43,-3.36 -27.47,-5.49 -59.33,-20.4 -78.72,-32.74 -36.01,-22.91 -53.395,-91.736 -68.726,-152.462 -5.461,-21.635 -10.623,-42.072 -16.374,-59.638 -6.74,-20.6 -13.881,-32.78 -19.096,-41.68 -6.341,-10.82 -9.526,-16.25 -6.91,-27.31 0.536,-2.26 -0.871,-4.54 -3.143,-5.08 -0.327,-0.08 -0.652,-0.11 -0.974,-0.11"
         style="fill:#6c86ad;fill-opacity:1;fill-rule:nonzero;stroke:none;stroke-width:0.1"
         id="path160" /><path
         d="m 1050.29,540.46 c -1.97,0 -3.73,1.37 -4.13,3.38 -7.4,36.28 -22.31,52.48 -35.47,66.78 -3.1,3.37 -6.09,6.63 -8.87,9.98 -8.894,10.8 -11.101,17.13 -13.659,24.47 -1.881,5.4 -4.014,11.52 -9.344,21.15 -6.551,11.84 -16.448,23.34 -26.015,34.47 -8.741,10.16 -17.784,20.67 -24.229,31.43 -11.575,19.29 -22.652,42.07 -33.861,69.67 -5.438,13.37 -13.234,32.959 -18.098,48.643 -1.16,3.746 -2.393,8.251 -3.722,13.119 -4.711,17.236 -13.725,49.448 -23.275,48.375 -2.327,-0.285 -4.386,1.485 -4.604,3.804 -0.223,2.322 1.481,4.385 3.803,4.604 16.906,1.625 25.389,-29.53 32.224,-54.555 1.304,-4.769 2.508,-9.183 3.643,-12.839 4.769,-15.379 12.475,-34.741 17.859,-47.971 11.04,-27.19 21.927,-49.6 33.276,-68.51 6.077,-10.13 14.484,-19.91 23.391,-30.26 9.847,-11.45 20.029,-23.29 27.001,-35.89 5.677,-10.25 8.036,-17.02 9.93,-22.46 2.48,-7.11 4.27,-12.24 12.2,-21.87 2.68,-3.24 5.57,-6.38 8.57,-9.64 13.9,-15.11 29.66,-32.24 37.52,-70.82 0.47,-2.28 -1,-4.51 -3.29,-4.98 -0.28,-0.06 -0.57,-0.08 -0.85,-0.08"
         style="fill:#6c86ad;fill-opacity:1;fill-rule:nonzero;stroke:none;stroke-width:0.1"
         id="path162" /><g
         id="g164"
         transform="scale(0.109263)"><path
           d="m 15477,4738.31 c -0.4,0 -0.9,0 -1.3,0 -21.4,0.73 -38.1,18.67 -37.4,39.99 2.3,63.52 3.7,125.21 5,184.15 4.5,205.83 8,368.47 44.5,466.77 30,80.99 54.1,142.77 79.6,207.84 17.6,45.03 35.8,91.62 57.1,147.35 113.9,299.37 181.6,555.55 206.9,783.07 27.6,248.58 68.6,509.42 121.9,775.38 3.9,19.95 8,41.74 12.3,64.71 36.7,198.51 87.1,470.52 273,563.48 18.8,9.51 42.3,1.81 51.9,-17.3 9.5,-19.1 1.7,-42.29 -17.3,-51.88 -151.5,-75.74 -199.7,-336.15 -231.7,-508.4 -4.3,-23.33 -8.3,-45.39 -12.4,-65.8 -52.8,-263.77 -93.5,-522.41 -120.8,-768.79 -26,-234.03 -95.3,-496.42 -211.6,-801.92 -21.3,-56.01 -39.6,-102.87 -57.3,-148.09 -25.4,-64.7 -49.2,-126.02 -79.1,-206.56 -31.9,-86.12 -35.5,-250.78 -39.7,-441.6 -1.3,-59.22 -2.7,-121.27 -4.9,-185.15 -0.8,-20.87 -17.9,-37.25 -38.7,-37.25"
           style="fill:#6c86ad;fill-opacity:1;fill-rule:nonzero;stroke:none"
           id="path166" /></g><g
         id="g168"
         transform="scale(0.110779)"><path
           d="m 16256.5,8817.81 c -13.9,0 -27.5,7.71 -34.1,21.09 l -11.6,23.12 c -94,188.54 -191.3,383.5 -367.2,500.74 -209.9,139.9 -456,221.62 -693.8,300.64 l -47.8,15.86 c -37.3,12.47 -76.3,21.56 -117.7,31.2 -57.7,13.49 -117.3,27.42 -173.5,51.52 -19.5,8.33 -38.2,19.2 -56.9,30.24 -19.1,11.31 -37.3,22 -55.7,28.96 -99.2,37.1 -193.3,87.22 -265.2,141.15 -9.9,7.45 -22.6,12.73 -36.1,18.31 -21.1,8.8 -45,18.74 -65.9,39.66 -14.9,14.9 -14.9,39 0,53.9 14.9,14.9 39,14.9 53.9,0 10.2,-10.2 24.6,-16.2 41.3,-23.1 16.4,-6.9 35,-14.6 52.6,-27.8 66.2,-49.65 153.6,-96.1 246.2,-130.73 24.7,-9.3 46.5,-22.19 67.7,-34.67 15.8,-9.31 31.6,-18.73 48.1,-25.8 50.1,-21.49 103.9,-34.04 160.8,-47.38 41.2,-9.6 83.7,-19.51 124.5,-33.14 l 47.7,-15.83 c 242.7,-80.58 493.7,-163.92 712.1,-309.54 192.8,-128.48 294.6,-332.67 393.2,-530.12 l 11.5,-23.09 c 9.4,-18.84 1.8,-41.74 -17,-51.16 -5.6,-2.72 -11.4,-4.03 -17.1,-4.03"
           style="fill:#6c86ad;fill-opacity:1;fill-rule:nonzero;stroke:none"
           id="path170" /></g><g
         id="g172"
         transform="scale(0.108093)"><path
           d="m 15362.5,1538.77 c -7.4,0 -14.8,2.04 -21.4,6.39 -18,11.75 -23.1,36.08 -11.3,54.03 114.9,175.77 87.3,530.56 57.9,906.35 -8.8,111.94 -17.6,226.47 -23.2,340.45 -16.6,332.86 -10.6,773.96 13.8,1048.82 15.6,175.96 32.3,352.94 48.9,530.01 23.7,251.26 47.3,502.71 68.1,751.94 25.8,311.03 92.2,621.69 156.2,922.08 30.9,144.97 62.9,294.93 89.6,442.03 77.9,428.71 99.1,733.91 119.6,1029.03 l 1.6,22.94 c 22.2,320.83 158.6,652.71 364.7,887.78 14.3,16.29 39,17.82 55.2,3.62 16.2,-14.24 17.8,-38.93 3.6,-55.15 -195.3,-222.62 -324.4,-537.33 -345.5,-841.71 l -1.6,-22.94 c -20.6,-297.25 -42,-604.58 -120.7,-1037.63 -27,-148.21 -59,-298.73 -90,-444.16 -63.7,-298.08 -129.2,-606.33 -154.9,-912.45 -20.7,-249.33 -44.4,-501.15 -68.1,-752.69 -16.6,-176.89 -33.3,-353.77 -48.8,-529.55 -24.3,-271.8 -30,-708.37 -13.7,-1038.18 5.6,-113.14 14.5,-226.94 23.2,-338.14 30.4,-389.39 59,-757.22 -70.6,-955.2 -7.5,-11.47 -20,-17.67 -32.6,-17.67"
           style="fill:#6c86ad;fill-opacity:1;fill-rule:nonzero;stroke:none"
           id="path174" /></g><path
         d="m 1095.6,220.26 c -1.66,0 -3.24,0.99 -3.91,2.63 -13.25,32.4 -11.31,48.24 -7.06,82.96 1.49,12.12 3.33,27.2 4.86,46.16 3.75,46.39 3,140.33 1.05,166.82 -1.73,23.43 -4.3,46.86 -6.77,69.51 -3.42,31.27 -6.96,63.59 -8.56,97.65 -0.91,19.43 -1.31,36.74 -1.69,53.47 -0.75,32.86 -1.4,61.24 -5.94,88.51 -3.63,21.762 -10.5,39.385 -17.78,58.049 -3.67,9.423 -7.47,19.163 -11.06,29.922 -0.74,2.215 0.46,4.608 2.67,5.343 2.23,0.746 4.61,-0.458 5.34,-2.67 3.53,-10.561 7.29,-20.202 10.92,-29.525 7.44,-19.085 14.47,-37.105 18.24,-59.729 4.64,-27.87 5.3,-56.53 6.06,-89.7 0.38,-16.69 0.77,-33.95 1.68,-53.28 1.59,-33.79 5.11,-65.99 8.52,-97.12 2.48,-22.73 5.05,-46.22 6.79,-69.8 1.97,-26.72 2.73,-121.4 -1.05,-168.12 -1.54,-19.14 -3.4,-34.33 -4.89,-46.52 -4.19,-34.21 -5.93,-48.37 6.5,-78.73 0.88,-2.16 -0.16,-4.63 -2.31,-5.51 -0.53,-0.22 -1.07,-0.32 -1.61,-0.32"
         style="fill:#6c86ad;fill-opacity:1;fill-rule:nonzero;stroke:none;stroke-width:0.1"
         id="path176" /><path
         d="m 1447.23,1013.92 c -1.54,0 -3.04,0.85 -3.78,2.33 -1.04,2.09 -0.2,4.63 1.89,5.67 6.18,3.09 12.85,5.04 19.31,6.93 9.33,2.73 18.14,5.31 25.25,11 4.41,3.52 8.7,8.21 13.24,13.18 8.71,9.51 17.71,19.36 29.49,23.28 1.18,0.4 2.48,0.98 3.89,1.61 6.53,2.93 16.4,7.32 28.67,1.37 9.95,-4.84 28.45,-13.83 32.22,-8.47 1.88,2.71 -7.16,14.24 -11.02,19.16 -4.15,5.28 -7.73,9.85 -9.27,13.68 -5.4,13.52 -9.28,25.28 -12.21,37.01 -1.06,4.24 -1.63,8.57 -2.19,12.75 -0.83,6.31 -1.61,12.28 -3.97,17.76 -3.23,7.56 -17.12,17.87 -24.57,23.41 l -2.39,1.78 c -1.87,1.4 -2.24,4.05 -0.84,5.91 1.39,1.87 4.05,2.23 5.91,0.85 l 2.36,-1.76 c 9.22,-6.85 23.17,-17.21 27.31,-26.87 2.79,-6.54 3.7,-13.37 4.58,-19.98 0.54,-4.13 1.05,-8.02 2,-11.8 2.83,-11.36 6.6,-22.77 11.85,-35.92 1.09,-2.71 4.64,-7.24 8.07,-11.61 8.24,-10.5 16.77,-21.36 11.31,-29.19 -7.88,-11.31 -27.26,-1.88 -42.84,5.69 -8.75,4.25 -15.54,1.2 -21.53,-1.48 -1.68,-0.75 -3.24,-1.44 -4.66,-1.91 -9.71,-3.24 -17.96,-12.26 -25.94,-20.98 -4.77,-5.21 -9.27,-10.14 -14.19,-14.07 -8.41,-6.73 -18.45,-9.67 -28.16,-12.51 -6.38,-1.86 -12.4,-3.63 -17.9,-6.38 -0.61,-0.3 -1.26,-0.44 -1.89,-0.44"
         style="fill:#6c86ad;fill-opacity:1;fill-rule:nonzero;stroke:none;stroke-width:0.1"
         id="path178" /><path
         d="m 1353.42,1021.71 c -0.6,0 -1.21,0.12 -1.79,0.4 -18.83,8.82 -31.82,22.82 -42.25,34.06 -2.51,2.72 -4.86,5.25 -7.09,7.48 -1.7,1.69 -3.25,3.85 -4.75,5.94 -2.27,3.13 -4.83,6.69 -7.25,7.63 -2.28,0.87 -10.32,-1.76 -15.65,-3.5 -9.14,-2.98 -17.78,-5.79 -23.49,-3.35 -1.77,0.76 -2.95,2.24 -3.23,4.07 -0.63,4.18 3.36,7.8 11.72,14.94 2.17,1.86 4.32,3.68 5.97,5.27 4.74,4.57 7.8,10.32 10.5,15.4 l 1.75,3.24 c 1.26,2.27 2.33,4.59 3.38,6.88 2.88,6.23 5.86,12.67 12.2,17.74 1.81,1.46 4.48,1.16 5.93,-0.66 1.46,-1.82 1.16,-4.48 -0.66,-5.94 -4.78,-3.82 -7.11,-8.86 -9.8,-14.69 -1.14,-2.47 -2.3,-4.97 -3.66,-7.43 l -1.68,-3.11 c -2.85,-5.35 -6.39,-12.01 -12.11,-17.51 -1.75,-1.69 -4.02,-3.64 -6.33,-5.61 -1.54,-1.32 -3.6,-3.07 -5.36,-4.69 3.79,0.72 8.6,2.3 12.25,3.49 8.74,2.84 16.28,5.3 21.33,3.33 4.75,-1.85 8.09,-6.47 11.04,-10.56 1.31,-1.82 2.57,-3.6 3.87,-4.9 2.3,-2.3 4.72,-4.91 7.32,-7.71 9.93,-10.71 22.29,-24.04 39.64,-32.17 2.11,-0.99 3.02,-3.5 2.03,-5.61 -0.72,-1.54 -2.24,-2.43 -3.83,-2.43"
         style="fill:#6c86ad;fill-opacity:1;fill-rule:nonzero;stroke:none;stroke-width:0.1"
         id="path180" /><path
         d="m 1067.72,591.92 c -1.48,0 -2.92,0.78 -3.69,2.17 -13.29,23.93 -48.7,58.24 -74.429,57.37 -2.413,-0.09 -4.282,1.75 -4.352,4.09 -0.075,2.32 1.753,4.28 4.088,4.35 28.803,0.92 67.423,-35.32 82.073,-61.7 1.14,-2.05 0.4,-4.62 -1.64,-5.76 -0.65,-0.35 -1.35,-0.52 -2.05,-0.52"
         style="fill:#6c86ad;fill-opacity:1;fill-rule:nonzero;stroke:none;stroke-width:0.1"
         id="path182" /><path
         d="m 811.308,750.54 c -2.595,0 -5.079,0.21 -7.36,0.72 -2.281,0.5 -3.721,2.75 -3.222,5.03 0.495,2.28 2.781,3.72 5.029,3.22 11.403,-2.47 30.277,4.14 35.862,7.21 21.63,11.91 39.258,29.17 48.363,47.38 1.052,2.08 3.585,2.94 5.668,1.89 2.088,-1.04 2.934,-3.58 1.89,-5.66 -9.851,-19.71 -28.75,-38.3 -51.849,-51.02 -6.291,-3.45 -21.629,-8.77 -34.381,-8.77"
         style="fill:#6c86ad;fill-opacity:1;fill-rule:nonzero;stroke:none;stroke-width:0.1"
         id="path184" /><g
         id="g186"
         transform="scale(0.115744)"><path
           d="m 15752.2,6118.84 c -178.6,0 -364.8,65.75 -553.9,197.24 -16.5,11.5 -20.7,34.22 -9.1,50.81 11.4,16.58 34.2,20.64 50.7,9.07 356.8,-247.96 700.9,-243.04 995.3,14.43 15.1,13.22 38.2,11.92 51.5,-3.46 13.3,-15.12 11.7,-38.19 -3.5,-51.41 -164.9,-144.37 -343.7,-216.68 -531,-216.68"
           style="fill:#6c86ad;fill-opacity:1;fill-rule:nonzero;stroke:none"
           id="path188" /></g><g
         id="g190"
         transform="scale(0.104356)"><path
           d="m 15821.7,15140.9 c -14.7,7.2 -23.5,23.6 -20.4,40.5 1.7,9.3 42.5,228.8 128.9,329.4 34.3,40 73.8,70.6 111.9,100.2 80.2,62 149.4,115.6 169.3,245.2 9.8,65 -16.8,123.3 -71.3,155.8 -52.5,31.4 -137.2,40.7 -221.9,-23.5 -16.5,-12.6 -40,-9.1 -52.5,7.2 -12.5,16.6 -9.4,40.1 7.2,52.6 94.2,71.4 213.4,82.7 305.5,28.1 80.6,-47.9 121.6,-136.6 107.1,-231.5 -24.4,-159.2 -116.3,-230.4 -197.4,-293.3 -36.9,-28.4 -71.6,-55.4 -101.1,-89.6 -60.7,-70.8 -101.4,-236.3 -111.9,-294.1 -3.7,-20.3 -23.3,-33.9 -43.6,-30.2 -3.4,0.7 -6.8,1.8 -9.8,3.2"
           style="fill:#6c86ad;fill-opacity:1;fill-rule:nonzero;stroke:none"
           id="path192" /></g><g
         id="g194"
         transform="scale(0.101303)"><path
           d="m 16234.6,15283.8 c -15.3,7.4 -24.3,24.2 -21.2,41.7 l 6.7,36.4 c 3.9,21 24,34.9 45,31 21.1,-3.5 34.9,-23.9 31,-44.9 l -6.7,-36.4 c -3.8,-21 -23.9,-34.9 -44.9,-31.1 -3.5,0.7 -6.9,1.8 -9.9,3.3"
           style="fill:#6c86ad;fill-opacity:1;fill-rule:nonzero;stroke:none"
           id="path196" /></g></g></g></svg>
