<svg width="28" height="34" viewBox="0 0 28 34" fill="none" xmlns="http://www.w3.org/2000/svg">
<path fill-rule="evenodd" clip-rule="evenodd" d="M2.33337 30.3335C1.15961 30.3335 0.374595 29.1633 0.766335 28.0979L0.842656 27.9215L2.76835 24.0701C3.49734 22.6121 3.91181 21.0194 3.98742 19.3951L4.00003 18.8526V13.6668C4.00003 8.71172 7.60401 4.59837 12.3337 3.80504L12.3334 2.00016C12.3334 1.07969 13.0796 0.333496 14 0.333496C14.9205 0.333496 15.6667 1.07969 15.6667 2.00016L15.668 3.80532C20.2656 4.57728 23.799 8.48637 23.9917 13.256L24 13.6668V18.8526C24 20.4827 24.3416 22.0926 25.0004 23.5792L25.2317 24.0701L27.1574 27.9215C27.6823 28.9713 26.9867 30.1968 25.8586 30.3229L25.6667 30.3335H17.3334C17.3334 32.1744 15.841 33.6668 14 33.6668C12.1591 33.6668 10.6667 32.1744 10.6667 30.3335H2.33337ZM14 7.00016C10.4297 7.00016 7.5149 9.80678 7.34153 13.3341L7.33337 13.6668V18.8526C7.33337 20.9872 6.87779 23.095 5.9997 25.0357L5.74977 25.5608L5.03009 27.0002H22.97L22.2503 25.5608C21.2957 23.6515 20.7605 21.5626 20.678 19.434L20.6667 18.8526V13.6668C20.6667 9.98493 17.6819 7.00016 14 7.00016Z" fill="#ADB5BD"/>
</svg>
