<svg
          width="111"
          height="222"
          viewBox="0 0 111 222"
          fill="none"
          xmlns="http://www.w3.org/2000/svg"
        >
          <path
            d="M81.5004 65.4415C83.8034 64.5903 86.2071 64.0325 88.6533 63.7818C90.1784 63.6048 91.7116 63.5036 93.2471 63.4784C93.3284 61.9971 93.446 60.5159 93.6178 59.0167C93.8745 56.633 94.3343 54.2749 94.9923 51.9673C95.0306 51.8333 95.103 51.7113 95.2028 51.6128C95.3025 51.5144 95.4262 51.4429 95.562 51.4052C95.7733 51.3427 96.0011 51.3655 96.1954 51.4686C96.3897 51.5716 96.5346 51.7465 96.5983 51.9549V51.9673C97.256 54.275 97.7158 56.6331 97.9729 59.0167C98.1447 60.5248 98.2713 62.0417 98.3436 63.5498C99.8719 63.6212 101.409 63.7461 102.937 63.9156C105.353 64.1693 107.743 64.623 110.081 65.272C110.214 65.3158 110.334 65.3894 110.433 65.487C110.532 65.5845 110.606 65.7034 110.651 65.8341C110.715 66.0426 110.692 66.2675 110.587 66.4593C110.483 66.6511 110.305 66.794 110.094 66.8567H110.081C107.743 67.5061 105.353 67.9598 102.937 68.2131C101.436 68.3826 99.9352 68.4986 98.416 68.5789C98.39 70.0941 98.2876 71.6051 98.1085 73.112C97.8535 75.5256 97.2883 77.8974 96.4265 80.1703C96.3921 80.2573 96.3397 80.3363 96.2728 80.4023C96.2059 80.4683 96.1258 80.52 96.0377 80.554C95.866 80.619 95.6754 80.6152 95.5065 80.5435C95.3376 80.4719 95.2037 80.3379 95.1334 80.1703C94.2788 77.8953 93.7138 75.5244 93.4514 73.112C93.2706 71.6307 93.1892 70.1494 93.153 68.6503C91.6413 68.6405 90.1315 68.5422 88.6316 68.3559C86.1869 68.0967 83.7842 67.5392 81.4787 66.6961C81.3508 66.6415 81.2419 66.5511 81.1653 66.4362C81.0888 66.3212 81.0481 66.1867 81.0481 66.0492C81.0481 65.9117 81.0888 65.7771 81.1653 65.6622C81.2419 65.5472 81.3508 65.4569 81.4787 65.4022L81.5004 65.4415Z"
            fill="#D0BFFF"
          />
          <path
            d="M0.557602 183.416C2.86065 182.565 5.26437 182.007 7.71051 181.757C9.23566 181.58 10.7688 181.478 12.3043 181.453C12.3857 179.972 12.5032 178.491 12.675 176.992C12.9317 174.608 13.3915 172.25 14.0496 169.942C14.0878 169.808 14.1603 169.686 14.26 169.588C14.3598 169.489 14.4835 169.418 14.6193 169.38C14.8305 169.318 15.0583 169.34 15.2526 169.443C15.4469 169.546 15.5918 169.721 15.6556 169.93V169.942C16.3147 172.249 16.7716 174.608 17.021 176.992C17.2019 178.5 17.3285 180.017 17.4008 181.525C18.9291 181.605 20.4664 181.721 21.9946 181.899C24.4093 182.155 26.7986 182.605 29.1385 183.247C29.271 183.291 29.3914 183.364 29.4903 183.462C29.5891 183.559 29.6637 183.678 29.7082 183.809C29.7717 184.017 29.7487 184.242 29.6443 184.434C29.5398 184.626 29.3624 184.769 29.1511 184.832H29.1385C26.8 185.481 24.4103 185.935 21.9946 186.188C20.4935 186.357 18.9924 186.482 17.4732 186.554C17.4653 188.073 17.3626 189.589 17.1657 191.096C16.9107 193.506 16.3455 195.875 15.4838 198.145C15.4493 198.232 15.397 198.311 15.33 198.377C15.2631 198.443 15.1831 198.495 15.0949 198.529C14.9232 198.594 14.7326 198.59 14.5637 198.518C14.3948 198.447 14.2609 198.313 14.1906 198.145C13.3373 195.873 12.7723 193.505 12.5087 191.096C12.3278 189.606 12.2464 188.124 12.2102 186.634C10.699 186.612 9.1899 186.514 7.68881 186.34C5.24344 186.084 2.84028 185.527 0.535896 184.68C0.407993 184.625 0.299078 184.535 0.222565 184.42C0.146051 184.305 0.105286 184.17 0.105286 184.033C0.105286 183.895 0.146051 183.761 0.222565 183.646C0.299078 183.531 0.407993 183.441 0.535896 183.386L0.557602 183.416Z"
            fill="#D0BFFF"
          />
          <path
            d="M69.8622 139.88C70.184 139.797 70.51 139.732 70.8388 139.684C70.8931 139.425 70.9564 139.157 71.0197 138.898C71.2968 137.735 71.7608 136.624 72.3942 135.606C72.4687 135.486 72.571 135.385 72.6926 135.311C72.9055 135.179 73.163 135.135 73.4085 135.19C73.6541 135.244 73.8675 135.393 74.002 135.603C74.6284 136.623 75.0891 137.734 75.3675 138.896C75.4489 139.208 75.5122 139.52 75.5755 139.833C75.892 139.895 76.2085 139.957 76.4798 140.038C77.6566 140.312 78.7825 140.767 79.8166 141.385C79.9378 141.463 80.0397 141.567 80.115 141.689C80.2493 141.899 80.2934 142.153 80.2378 142.395C80.1822 142.638 80.0313 142.848 79.8184 142.981C78.7843 143.599 77.6584 144.054 76.4816 144.328C76.2193 144.399 75.948 144.453 75.6858 144.507C75.6413 144.832 75.5748 145.154 75.4868 145.47C75.1902 146.681 74.6146 147.808 73.8049 148.763L73.7054 148.852C73.5361 148.999 73.3147 149.074 73.0897 149.06C72.8647 149.046 72.6546 148.944 72.5054 148.777L72.4937 148.763C71.6872 147.805 71.1121 146.679 70.8117 145.47C70.7393 145.203 70.6851 144.935 70.6308 144.667C70.353 144.642 70.0795 144.582 69.817 144.489C68.59 144.196 67.448 143.628 66.4801 142.829L66.3897 142.731C66.2516 142.556 66.1843 142.337 66.2011 142.116C66.2178 141.895 66.3173 141.688 66.4801 141.535C67.4618 140.732 68.6198 140.165 69.8622 139.88Z"
            fill="#D0BFFF"
          />
          <path
            d="M39.5505 2.21126H39.6048C39.7233 1.92039 39.8718 1.64231 40.0479 1.3814C40.2764 0.995641 40.5559 0.641561 40.8789 0.328457C41.0925 0.118125 41.382 0 41.6837 0C41.9855 0 42.2749 0.118125 42.4885 0.328457C42.8117 0.641743 43.0914 0.995789 43.3205 1.3814C43.5305 1.70165 43.7063 2.04256 43.845 2.39865C44.2089 2.53507 44.5574 2.70852 44.8849 2.91619C45.2706 3.14957 45.6285 3.42494 45.952 3.73713C46.1608 3.95014 46.2776 4.23492 46.2776 4.5313C46.2776 4.82768 46.1608 5.11246 45.952 5.32547C45.631 5.64302 45.2728 5.92162 44.8849 6.15533C44.6179 6.32229 44.3365 6.46562 44.0439 6.58364C44.0394 6.60121 44.0394 6.61962 44.0439 6.63718C43.6903 7.48101 43.1046 8.21044 42.3529 8.74307C42.1656 8.88333 41.9369 8.95925 41.7018 8.95925C41.4667 8.95925 41.238 8.88333 41.0507 8.74307C40.3421 8.24195 39.7805 7.56464 39.423 6.77996C38.6298 6.42831 37.9438 5.87758 37.4336 5.1827C37.2918 4.99602 37.2152 4.76903 37.2152 4.53576C37.2152 4.30249 37.2918 4.0755 37.4336 3.88883C37.9657 3.14465 38.6993 2.56329 39.5505 2.21126Z"
            fill="#D0BFFF"
          />
          <path
            d="M79.5824 215.246H79.6366C79.7626 214.955 79.9107 214.675 80.0797 214.407C80.3131 214.024 80.5924 213.671 80.9117 213.354C81.1275 213.148 81.4161 213.033 81.7165 213.033C82.0168 213.033 82.3054 213.148 82.5213 213.354C82.8405 213.671 83.1199 214.024 83.3532 214.407C83.5619 214.731 83.7376 215.075 83.8777 215.433C84.6617 215.74 85.3775 216.194 85.9847 216.772C86.1935 216.985 86.3103 217.269 86.3103 217.566C86.3103 217.862 86.1935 218.147 85.9847 218.36C85.6629 218.677 85.3048 218.955 84.9176 219.19C84.6506 219.357 84.3692 219.5 84.0766 219.618V219.672C83.7214 220.512 83.1397 221.24 82.3947 221.778C82.2055 221.917 81.9755 221.993 81.7391 221.993C81.5027 221.993 81.2726 221.917 81.0835 221.778C80.1413 220.353 78.9095 219.138 77.4663 218.208C77.3246 218.022 77.248 217.795 77.248 217.561C77.248 217.328 77.3246 217.101 77.4663 216.914C78.0016 216.176 78.7342 215.598 79.5824 215.246Z"
            fill="#D0BFFF"
          />
        </svg>